<?xml version="1.0" standalone="no"?>
<!DOCTYPE svg PUBLIC "-//W3C//DTD SVG 20010904//EN"
 "http://www.w3.org/TR/2001/REC-SVG-20010904/DTD/svg10.dtd">
<svg version="1.0" xmlns="http://www.w3.org/2000/svg"
 width="300.000000pt" height="214.000000pt" viewBox="0 0 300.000000 214.000000"
 preserveAspectRatio="xMidYMid meet">
<metadata>
Created by potrace 1.10, written by Peter Selinger 2001-2011
</metadata>
<g transform="translate(0.000000,214.000000) scale(0.100000,-0.100000)"
fill="#000000" stroke="none">
<path d="M600 1933 c0 -4 -9 -14 -21 -21 -17 -11 -25 -11 -45 3 l-24 15 1 -57
c1 -54 2 -55 9 -20 10 52 20 58 21 11 1 -39 1 -39 10 -9 10 36 46 55 108 56
34 0 41 2 26 8 -36 15 -85 23 -85 14z"/>
<path d="M715 1903 c-34 -8 -41 -23 -12 -23 15 0 27 5 27 11 0 6 5 7 13 2 6
-4 21 -9 32 -10 11 -2 44 -8 74 -13 30 -6 75 -10 100 -9 40 1 34 4 -44 19
-120 23 -166 29 -190 23z"/>
<path d="M2602 1878 c-20 -20 -14 -50 15 -80 25 -26 21 -42 -5 -16 -9 9 -12 9
-12 1 0 -7 9 -15 20 -18 11 -4 18 -11 14 -16 -4 -6 -11 -6 -20 2 -9 7 -14 8
-14 1 0 -6 6 -13 13 -15 10 -4 10 -6 0 -6 -7 -1 -13 -6 -13 -12 0 -8 5 -7 15
1 24 20 38 0 25 -34 -13 -34 -6 -46 25 -46 23 0 24 2 18 45 -5 43 6 61 22 35
3 -5 11 -10 17 -10 7 0 7 5 -1 14 -9 11 -9 15 1 20 7 3 3 3 -9 0 -27 -6 -30 4
-5 22 16 13 16 14 0 8 -24 -8 -23 13 1 26 26 13 35 44 21 70 -12 23 -35 27
-26 4 3 -8 2 -12 -4 -9 -6 4 -10 -8 -10 -29 0 -35 -20 -63 -20 -29 -1 17 -1
17 -14 0 -18 -23 -29 -7 -20 28 4 16 2 25 -6 25 -7 0 -10 7 -6 15 7 18 -5 20
-22 3z"/>
<path d="M1050 1844 c30 -7 73 -16 95 -20 22 -3 43 -8 48 -11 4 -2 22 -6 39
-8 17 -3 40 -12 52 -22 15 -13 17 -14 8 -2 -14 19 -7 29 21 29 17 0 18 -2 6
-17 -12 -16 -12 -17 1 -7 29 22 60 23 73 4 8 -14 14 -16 24 -8 7 6 29 8 48 5
25 -4 35 -2 35 7 0 9 -26 15 -87 20 -49 4 -155 16 -238 27 -171 22 -204 23
-125 3z"/>
<path d="M2756 1820 c4 -19 12 -46 18 -60 7 -14 11 -33 8 -43 -3 -16 -1 -17
17 -8 29 16 35 30 15 38 -9 3 -27 29 -40 57 -22 46 -24 47 -18 16z"/>
<path d="M693 1811 c-8 -22 -16 -28 -34 -26 -13 1 -16 0 -6 -2 9 -2 17 -9 17
-14 0 -5 18 -9 39 -9 l40 0 -17 40 c-9 22 -19 40 -22 40 -3 0 -11 -13 -17 -29z"/>
<path d="M893 1810 c-29 -17 -54 -34 -54 -38 -1 -4 -3 -42 -4 -84 -2 -76 8
-103 21 -53 3 14 9 25 13 25 4 0 14 -11 21 -25 17 -31 35 -33 25 -2 -4 12 -10
45 -12 72 -3 28 -11 55 -19 61 -12 10 -7 15 26 28 22 9 52 16 66 16 21 0 25
-4 21 -20 -3 -11 0 -26 7 -33 7 -7 18 -29 25 -49 12 -35 38 -52 66 -42 25 10
35 100 13 122 -7 7 -23 12 -36 12 -13 0 -35 9 -49 20 -35 28 -69 25 -130 -10z
m159 -40 c20 0 24 -15 8 -25 -15 -9 -62 23 -54 36 4 7 10 7 17 0 6 -6 19 -11
29 -11z"/>
<path d="M1668 1809 c-5 -14 -15 -15 -64 -7 -32 5 -67 7 -78 5 -12 -2 -3 -5
19 -6 36 -2 37 -3 17 -12 -13 -5 -29 -6 -35 -3 -9 5 -9 4 -2 -4 8 -9 21 -9 50
-1 25 7 40 8 43 1 1 -5 9 -18 17 -28 15 -19 15 -19 8 0 -5 17 -3 18 23 12 76
-18 79 -18 69 -8 -5 5 -19 12 -30 14 -11 2 -22 14 -25 28 -5 19 -7 21 -12 9z"/>
<path d="M507 1803 c-10 -19 -39 -115 -43 -145 -2 -18 -13 -40 -24 -48 -16
-12 -18 -18 -8 -28 9 -9 9 -12 -3 -12 -12 0 -12 -2 1 -10 10 -6 11 -10 3 -10
-7 0 -13 -7 -13 -16 0 -13 7 -10 26 12 l27 28 -7 -82 c-7 -73 -6 -82 9 -82 15
0 16 9 11 83 -5 61 -4 78 4 65 6 -10 19 -18 28 -18 11 0 13 3 6 8 -6 4 -10 15
-8 25 1 12 -2 17 -10 14 -7 -3 -13 1 -13 9 0 7 4 11 8 9 3 -3 -2 12 -12 32
-17 34 -17 39 -4 53 14 13 17 13 25 0 7 -10 10 6 10 53 0 63 -3 77 -13 60z"/>
<path d="M540 1750 c0 -35 2 -61 4 -59 8 7 10 108 3 115 -4 4 -7 -21 -7 -56z"/>
<path d="M1768 1753 c-9 -2 -20 -13 -23 -24 -4 -11 -11 -17 -16 -14 -5 4 -8
-32 -7 -87 l2 -93 6 85 6 85 2 -85 c2 -86 12 -113 39 -103 11 4 14 30 12 124
-1 66 -2 118 -3 118 0 -1 -9 -3 -18 -6z m7 -112 c0 -50 -5 -94 -9 -98 -5 -4
-7 1 -4 13 3 12 1 28 -4 37 -5 11 -5 24 2 37 8 14 8 26 0 40 -8 14 -7 25 2 40
7 11 13 20 13 20 0 0 0 -40 0 -89z"/>
<path d="M960 1730 c-7 -14 -8 -26 0 -39 15 -29 12 -33 -11 -21 -11 7 -24 9
-27 5 -3 -3 4 -8 16 -12 17 -4 21 -10 16 -29 -4 -15 -2 -24 5 -24 6 0 11 11
11 25 0 14 4 25 8 25 5 0 15 -11 22 -25 15 -28 36 -35 24 -7 -4 9 -9 35 -12
57 -7 62 -31 83 -52 45z"/>
<path d="M1817 1730 c-14 -17 -17 -38 -16 -105 1 -47 5 -82 10 -79 5 3 9 43 9
90 0 62 3 84 13 84 7 0 22 7 33 15 18 14 18 14 -6 15 -14 0 -33 -9 -43 -20z"/>
<path d="M2493 1734 c-12 -21 -5 -84 8 -84 5 0 9 10 9 23 0 13 5 28 10 33 7 7
6 16 -4 29 -13 18 -14 18 -23 -1z"/>
<path d="M1942 1698 c-2 -35 -6 -48 -17 -48 -11 0 -14 10 -11 40 2 22 0 40 -4
40 -7 0 -16 -56 -25 -150 -2 -19 -6 -60 -9 -90 -3 -30 -8 -89 -11 -131 l-6
-77 25 2 c32 1 32 3 4 34 -13 14 -16 21 -8 17 8 -5 21 -17 29 -28 13 -18 14
-18 43 10 27 24 29 25 19 6 -6 -13 -16 -23 -21 -23 -6 0 -10 -4 -10 -8 0 -5
14 -9 31 -10 29 -1 30 1 24 26 -4 15 -8 56 -9 90 -1 57 -4 66 -30 88 -27 24
-29 24 -47 8 -11 -10 -21 -15 -24 -12 -3 3 4 13 15 23 19 17 19 19 3 39 -18
21 -18 21 3 3 21 -18 22 -17 43 9 22 28 28 73 12 90 -6 5 -11 29 -14 54 l-4
45 -1 -47z m-3 -65 c12 10 14 9 8 -7 -4 -10 -2 -26 5 -35 12 -14 11 -15 -5 -2
-14 11 -21 11 -29 3 -19 -19 -32 -13 -15 6 11 12 14 22 7 30 -7 9 -7 9 2 2 8
-6 17 -5 27 3z m6 -193 c10 11 20 18 23 15 3 -3 -3 -14 -13 -25 -18 -20 -18
-21 6 -48 l24 -27 -27 24 -28 24 -25 -23 c-14 -13 -27 -21 -30 -18 -3 2 6 15
20 28 l25 24 -22 25 -23 26 26 -23 26 -22 18 20z"/>
<path d="M670 1704 c0 -10 6 -14 15 -10 8 3 15 1 15 -4 0 -6 -19 -9 -42 -8
-41 3 -43 2 -46 -27 -4 -40 16 -64 56 -69 63 -7 111 66 63 96 -18 11 -18 13
-3 25 15 11 12 12 -20 13 -28 0 -38 -4 -38 -16z m47 -50 c4 -12 -22 -44 -36
-44 -4 0 -16 7 -27 15 -19 15 -19 15 1 30 22 17 56 16 62 -1z"/>
<path d="M2736 1692 c-3 -5 -5 -26 -4 -46 1 -35 2 -36 20 -19 11 10 18 27 16
42 -3 25 -22 39 -32 23z"/>
<path d="M2000 1670 c-14 -4 -19 -8 -12 -9 6 -1 12 -10 12 -21 0 -19 2 -20 28
-6 15 8 44 14 64 13 34 -1 57 7 47 17 -9 9 -116 14 -139 6z"/>
<path d="M2550 1665 c-31 -12 -32 -14 -10 -14 14 0 39 6 55 14 41 18 3 19 -45
0z"/>
<path d="M2476 1622 c-9 -11 -14 -26 -10 -36 4 -10 -1 -25 -11 -36 -10 -11
-13 -20 -8 -20 15 0 29 20 43 63 14 45 10 54 -14 29z"/>
<path d="M2591 1631 c-1 -8 -7 -11 -17 -7 -12 4 -15 2 -10 -9 3 -8 1 -15 -4
-15 -5 0 -7 -7 -4 -15 5 -12 10 -13 20 -4 10 8 18 8 27 1 8 -7 16 -6 25 4 9
10 9 14 1 14 -6 0 -8 7 -5 16 5 14 4 15 -8 5 -11 -10 -15 -8 -19 6 -3 10 -5
12 -6 4z"/>
<path d="M2087 1623 c-4 -3 -7 -15 -7 -25 0 -10 -6 -18 -14 -18 -16 0 -26 -21
-26 -56 0 -14 4 -22 10 -19 6 3 10 14 10 24 0 10 11 30 24 46 27 31 51 29 66
-7 10 -25 11 -25 15 13 3 20 -2 29 -21 38 -28 13 -48 14 -57 4z"/>
<path d="M2746 1601 c-10 -11 -15 -24 -12 -30 4 -5 2 -12 -4 -16 -5 -3 -10
-11 -10 -17 0 -7 13 1 30 17 31 30 33 48 3 24 -15 -11 -15 -10 1 9 24 27 16
39 -8 13z"/>
<path d="M825 1570 c-4 -6 -10 -24 -15 -40 -7 -23 -5 -30 5 -30 7 0 16 -6 18
-12 4 -10 6 -10 6 0 1 6 8 12 17 12 11 0 14 6 10 20 -3 11 -9 29 -12 40 -6 22
-19 26 -29 10z"/>
<path d="M2516 1571 c-3 -4 4 -26 15 -47 18 -35 20 -50 14 -151 l-7 -112 56 0
56 0 -6 78 c-6 73 -5 78 14 83 15 4 19 11 15 32 -3 15 -1 26 6 26 6 0 11 5 11
10 0 6 -6 10 -14 10 -8 0 -23 14 -33 30 -21 36 -29 37 -37 8 -6 -23 -6 -23
-22 -3 -8 11 -20 19 -25 18 -5 -2 -9 4 -9 12 0 16 -25 21 -34 6z m124 -88 c-1
-16 -7 -39 -15 -53 -8 -14 -14 -46 -15 -71 0 -44 -18 -77 -33 -62 -12 12 -7
119 6 132 10 11 10 13 0 7 -10 -5 -13 4 -13 33 0 40 1 41 35 41 32 0 35 -3 35
-27z"/>
<path d="M1951 1538 c-11 -18 -10 -24 8 -42 l21 -20 0 36 c0 44 -11 54 -29 26z"/>
<path d="M2746 1532 l-27 -29 30 -1 c26 -1 30 2 29 29 -1 16 -2 29 -3 29 -1 0
-14 -13 -29 -28z"/>
<path d="M990 1523 c-8 -16 -15 -50 -16 -76 -2 -41 -8 -53 -33 -74 -17 -14
-31 -34 -31 -44 0 -18 10 -19 141 -19 l141 0 -7 43 c-9 50 -38 110 -70 145
-13 14 -21 31 -18 38 4 11 -7 14 -44 14 -44 0 -51 -3 -63 -27z m94 -12 c3 -5
-14 -8 -38 -7 -24 0 -42 4 -39 9 6 10 71 9 77 -2z m-20 -30 c10 -11 18 -30 18
-43 0 -87 -13 -109 -53 -88 -13 7 -19 20 -17 38 1 15 -1 33 -5 39 -8 13 18 73
32 73 4 0 16 -9 25 -19z m84 -71 c11 -18 10 -20 -18 -20 -23 0 -30 4 -30 20 0
12 7 20 18 20 9 0 23 -9 30 -20z m-149 -56 l23 -26 -34 7 c-42 9 -44 11 -28
30 16 19 12 20 39 -11z m158 11 c7 -20 5 -21 -34 -30 -28 -6 -33 -4 -33 13 0
10 3 22 7 25 12 13 54 7 60 -8z"/>
<path d="M2175 1530 c-4 -6 -13 -9 -21 -6 -8 3 -24 -6 -36 -19 -12 -14 -31
-25 -43 -25 -45 0 -59 -41 -23 -70 23 -18 48 -17 48 4 0 7 21 10 67 8 53 -3
68 -1 75 12 10 18 34 21 43 6 3 -5 0 -7 -8 -4 -21 8 -41 -20 -24 -35 19 -15
67 26 67 57 0 21 -4 22 -69 22 -58 0 -70 -3 -73 -17 -2 -11 -14 -18 -33 -20
-17 -1 -44 -4 -62 -6 -17 -2 -30 1 -27 5 3 4 11 8 18 8 8 0 19 7 26 15 7 8 28
15 46 15 30 0 34 3 34 26 0 24 2 25 17 13 14 -12 16 -12 12 0 -7 19 -25 25
-34 11z"/>
<path d="M602 1523 c-12 -2 -27 -14 -34 -26 -10 -20 -10 -21 5 -8 21 17 21 9
2 -29 -9 -18 -21 -27 -29 -24 -8 3 -17 1 -21 -5 -4 -7 5 -11 24 -11 23 0 34 7
45 28 23 45 42 57 55 35 7 -13 13 -15 21 -7 9 9 8 17 -2 33 -13 21 -21 23 -66
14z"/>
<path d="M2362 1488 c-1 -56 23 -94 76 -119 44 -22 72 -15 72 18 0 48 -69 113
-119 113 -31 0 -17 16 19 23 19 3 16 5 -11 6 -36 1 -37 1 -37 -41z m78 -51 c0
-4 4 -6 8 -3 4 2 13 -4 20 -14 8 -14 8 -21 -2 -29 -9 -8 -21 -2 -45 25 -26 30
-29 39 -19 51 10 13 14 13 25 -3 7 -10 13 -22 13 -27z"/>
<path d="M403 1503 c-7 -2 -13 -11 -13 -18 0 -8 -7 -20 -15 -28 -8 -8 -16 -26
-19 -41 -2 -14 -7 -30 -11 -36 -10 -16 12 -12 29 5 9 9 24 15 33 13 11 -2 17
2 15 10 -1 9 2 11 10 6 9 -6 9 -3 -1 9 -7 9 -10 17 -6 17 4 0 2 7 -5 15 -7 8
-10 24 -7 35 3 11 4 20 4 19 -1 0 -8 -3 -14 -6z"/>
<path d="M1316 1463 c-19 -23 -25 -38 -18 -41 7 -2 12 -11 12 -20 1 -15 2 -15
11 1 5 9 20 17 32 17 20 -1 19 -3 -11 -28 -18 -15 -32 -34 -32 -42 0 -8 18 3
43 28 24 23 47 39 52 35 4 -5 5 0 2 11 -8 19 -49 75 -57 75 -3 1 -18 -16 -34
-36z"/>
<path d="M870 1470 c-6 -11 -8 -20 -5 -20 3 0 1 -9 -5 -20 -9 -16 -8 -20 5
-20 8 0 15 -4 15 -10 0 -5 5 -10 11 -10 5 0 7 5 4 10 -3 6 1 10 9 10 15 0 16
28 1 63 -9 23 -22 22 -35 -3z"/>
<path d="M1659 1463 c-17 -20 -22 -118 -7 -130 69 -54 182 -9 151 60 -7 14 -7
30 -2 39 6 11 4 20 -7 29 -22 18 -121 19 -135 2z m51 -43 c0 -5 -6 -10 -12
-10 -7 0 -5 -5 5 -11 20 -12 22 -35 3 -42 -29 -11 -48 37 -24 61 15 15 28 16
28 2z m60 0 c0 -5 -5 -10 -11 -10 -6 0 -3 -7 6 -16 18 -19 3 -47 -21 -37 -17
6 -19 59 -1 66 20 9 27 8 27 -3z"/>
<path d="M1230 1450 c0 -5 5 -12 11 -16 8 -4 8 -9 0 -17 -16 -16 -13 -27 4
-21 8 4 13 10 10 14 -3 5 1 11 7 13 10 4 10 6 0 6 -7 1 -11 5 -8 10 3 5 -1 11
-9 15 -8 3 -15 1 -15 -4z"/>
<path d="M390 1340 c0 -30 -3 -65 -6 -77 -5 -17 -2 -23 10 -23 13 0 16 12 16
63 0 34 -5 69 -10 77 -7 11 -10 -1 -10 -40z"/>
<path d="M1460 1379 c0 -58 52 -158 69 -132 3 5 14 12 23 16 9 3 22 25 28 49
6 24 14 51 17 61 4 14 0 18 -14 15 -13 -2 -19 -14 -21 -43 -5 -66 -12 -74 -27
-30 -18 50 -75 100 -75 64z"/>
<path d="M582 1364 c-7 -8 -12 -22 -10 -32 6 -31 169 -26 168 6 -1 25 -23 35
-81 38 -46 2 -68 -2 -77 -12z"/>
<path d="M1347 1342 c-51 -52 -47 -73 4 -24 23 21 40 44 38 51 -3 7 -20 -5
-42 -27z"/>
<path d="M2070 1320 c0 -43 13 -52 30 -20 8 15 21 20 50 20 29 0 42 -5 50 -20
17 -32 31 -23 28 18 l-3 37 -77 3 -78 3 0 -41z"/>
<path d="M480 1270 c0 -75 -1 -80 -21 -80 -16 0 -19 3 -12 13 6 6 13 21 16 32
6 19 6 19 -6 1 -7 -11 -20 -28 -29 -38 -25 -25 -23 -28 17 -28 33 0 35 -2 35
-36 0 -21 -4 -33 -10 -29 -5 3 -10 -1 -10 -9 0 -9 8 -16 17 -16 9 0 24 -7 34
-16 14 -13 21 -13 36 -4 12 7 13 10 3 7 -27 -8 -47 16 -51 61 -3 29 -1 42 8
42 8 0 13 -14 13 -41 0 -27 4 -38 11 -33 7 4 9 21 6 40 l-6 34 115 0 114 0 0
-35 c0 -19 5 -35 10 -35 6 0 10 16 10 35 0 19 5 35 10 35 6 0 10 -16 10 -35 0
-19 5 -35 11 -35 7 0 10 14 7 35 -4 35 -4 35 35 35 23 0 36 4 32 10 -3 6 -15
10 -26 10 -10 0 -19 5 -19 11 0 5 5 7 11 4 6 -4 1 11 -10 34 -12 22 -21 56
-21 76 0 34 -13 47 -23 23 -4 -10 -8 -9 -16 2 -16 24 -21 7 -22 -73 -1 -69 -3
-77 -20 -77 -12 0 -19 7 -19 20 0 13 -7 20 -20 20 -11 0 -20 -4 -20 -10 0 -5
7 -7 15 -4 9 4 15 0 15 -10 0 -12 -10 -16 -35 -16 -24 0 -35 5 -35 15 0 8 -4
15 -10 15 -5 0 -7 -7 -4 -15 5 -12 -4 -15 -45 -15 -48 0 -51 2 -51 25 0 31 20
33 21 3 0 -21 1 -22 8 -3 8 19 8 19 19 0 8 -15 12 -16 12 -5 0 13 1 13 10 0 8
-13 10 -12 10 3 0 10 -7 17 -18 17 -10 0 -28 7 -41 16 -20 14 -23 23 -18 60 4
42 -5 58 -17 32 -5 -10 -7 -10 -12 0 -15 31 -24 5 -24 -68z"/>
<path d="M2304 1322 c-31 -26 -48 -81 -35 -112 9 -20 11 -21 10 -5 -3 50 3 69
31 97 17 16 30 31 30 34 0 9 -16 3 -36 -14z"/>
<path d="M2360 1336 c0 -3 14 -18 30 -34 28 -28 34 -47 31 -97 -1 -17 1 -17 9
3 14 34 5 71 -26 104 -25 25 -44 36 -44 24z"/>
<path d="M1359 1299 c-20 -14 -25 -25 -21 -44 5 -31 22 -33 22 -3 0 12 7 30
17 40 23 26 13 30 -18 7z"/>
<path d="M990 1259 c-93 -37 -104 -160 -19 -204 74 -39 157 5 166 86 6 52 -20
93 -73 115 -38 16 -40 16 -74 3z m57 -15 c5 -14 -35 -26 -43 -13 -8 14 6 30
24 27 8 -2 17 -8 19 -14z m-80 -40 c1 -5 -2 -16 -7 -24 -12 -20 -33 0 -24 24
7 17 25 17 31 0z m147 -1 c10 -25 -10 -39 -23 -15 -10 19 -6 32 10 32 4 0 10
-8 13 -17z m-59 -47 c0 -29 -31 -44 -50 -25 -23 23 -9 51 24 47 18 -2 26 -9
26 -22z m-91 -42 c3 -9 3 -20 0 -25 -8 -13 -34 9 -34 27 0 19 26 18 34 -2z
m156 4 c0 -7 -5 -20 -10 -28 -12 -20 -33 0 -24 23 7 20 34 23 34 5z m-70 -53
c0 -9 -9 -15 -25 -15 -24 0 -32 10 -18 23 12 13 43 7 43 -8z"/>
<path d="M1632 1254 c-31 -22 -80 -138 -62 -149 4 -3 11 12 15 32 9 50 29 87
61 112 31 24 19 29 -14 5z"/>
<path d="M1711 1250 c9 -5 26 -32 38 -60 23 -53 37 -69 21 -22 -24 65 -43 92
-65 92 -5 -1 -3 -5 6 -10z"/>
<path d="M2100 1241 c0 -12 -7 -33 -16 -46 -16 -25 -16 -25 20 -25 37 0 48 13
20 24 -15 6 -15 9 1 34 10 15 14 24 10 20 -5 -4 -14 -3 -22 3 -10 9 -13 7 -13
-10z"/>
<path d="M1182 1241 c-8 -5 -12 -15 -10 -22 1 -8 56 -63 121 -123 64 -59 117
-114 117 -122 0 -17 22 -18 38 -2 16 16 15 38 -2 38 -8 0 -65 54 -127 120 -62
66 -115 120 -118 120 -4 0 -12 -4 -19 -9z"/>
<path d="M2181 1218 c5 -18 9 -34 9 -34 0 -1 -9 0 -20 3 -11 3 -20 0 -20 -6 0
-6 18 -11 41 -11 l41 0 -16 25 c-9 13 -16 31 -16 40 0 8 -6 15 -14 15 -12 0
-13 -7 -5 -32z"/>
<path d="M1871 1231 c-7 -5 -10 -14 -6 -20 5 -8 11 -9 19 -2 7 6 16 8 19 4 4
-3 7 1 7 10 0 18 -17 22 -39 8z"/>
<path d="M1930 1226 c0 -8 6 -17 13 -20 10 -5 10 -7 0 -12 -15 -6 -18 -34 -4
-34 12 0 34 57 26 69 -9 16 -35 13 -35 -3z"/>
<path d="M1639 1185 c-11 -26 -19 -60 -17 -78 4 -28 5 -25 12 20 5 30 17 59
27 69 18 16 20 16 38 0 11 -10 24 -34 29 -54 6 -20 10 -28 11 -17 0 11 -8 39
-19 63 -26 58 -54 58 -81 -3z"/>
<path d="M2470 1181 l0 -46 105 3 105 3 0 45 0 44 -105 -2 -105 -2 0 -45z m60
0 c0 -14 -5 -18 -20 -14 -11 3 -20 12 -20 19 0 8 9 14 20 14 13 0 20 -7 20
-19z m57 -1 c11 -13 12 -13 13 3 0 16 2 17 15 3 8 -8 15 -17 15 -19 0 -4 -46
-3 -82 2 -5 1 -8 8 -8 16 0 19 30 16 47 -5z"/>
<path d="M1841 1191 c-15 -27 -14 -31 9 -31 13 0 20 7 20 19 0 28 -17 35 -29
12z"/>
<path d="M1976 1203 c-14 -14 -5 -43 13 -43 14 0 18 5 14 20 -6 23 -17 33 -27
23z"/>
<path d="M1423 1144 c0 -27 4 -40 9 -32 10 17 10 65 0 72 -5 3 -9 -15 -9 -40z"/>
<path d="M1487 1183 c-10 -9 -9 -71 1 -77 5 -3 8 15 8 39 -1 25 -1 45 -2 45 0
0 -4 -3 -7 -7z"/>
<path d="M1837 1130 c5 -20 48 -60 64 -60 5 0 9 9 9 19 0 15 -6 19 -25 17 -21
-3 -24 0 -19 20 5 19 2 24 -14 24 -15 0 -19 -5 -15 -20z"/>
<path d="M1971 1123 c8 -22 8 -25 -2 -16 -9 9 -15 9 -25 -2 -14 -14 -19 -35
-8 -35 17 0 46 24 59 50 15 29 15 30 -9 30 -24 0 -25 -2 -15 -27z"/>
<path d="M2012 1050 c-59 -64 -65 -68 -96 -63 -42 7 -76 -23 -76 -67 0 -60 64
-90 111 -51 18 15 23 28 22 59 -2 38 3 45 63 102 42 39 64 66 60 75 -3 8 -9
15 -13 14 -4 0 -36 -31 -71 -69z m-64 -93 c22 -17 14 -65 -13 -83 -21 -14 -31
-15 -51 -6 -30 14 -38 33 -30 67 10 40 57 51 94 22z"/>
<path d="M1900 925 c-12 -13 -27 -22 -31 -19 -5 3 -9 1 -9 -4 0 -24 27 -16 53
15 33 38 22 45 -13 8z"/>
<path d="M2554 1091 c-19 -33 -34 -32 -34 2 0 18 -2 19 -10 7 -5 -8 -10 -30
-10 -47 0 -28 -4 -33 -24 -33 -26 0 -44 -16 -25 -22 15 -5 -7 -58 -37 -86 -13
-13 -24 -30 -24 -38 0 -19 61 42 77 78 6 14 20 29 31 32 10 4 24 18 30 31 6
14 18 25 26 25 21 0 31 21 15 31 -12 8 -11 11 4 20 18 11 23 29 8 29 -6 0 -18
-13 -27 -29z"/>
<path d="M2180 1070 c0 -22 5 -40 10 -40 6 0 10 18 10 40 0 22 -4 40 -10 40
-5 0 -10 -18 -10 -40z"/>
<path d="M2272 1068 l1 -43 4 38 c2 20 8 35 14 32 5 -4 9 -1 9 4 0 6 -7 11
-15 11 -11 0 -15 -11 -13 -42z"/>
<path d="M2310 1093 c0 -15 2 -16 10 -3 7 12 11 10 19 -10 l10 -25 0 28 c1 21
-4 27 -19 27 -12 0 -20 -7 -20 -17z"/>
<path d="M595 1082 c-28 -19 -45 -64 -45 -117 l0 -55 81 0 c69 0 85 -3 112
-24 18 -13 43 -29 57 -36 24 -13 24 -12 10 5 -8 10 -29 24 -46 31 -29 12 -31
16 -30 68 1 31 -3 56 -8 56 -5 0 -3 7 4 15 7 8 8 15 2 15 -5 0 -15 -7 -22 -15
-7 -8 -19 -15 -27 -15 -13 0 -13 3 -3 15 10 12 9 15 -4 15 -9 0 -19 -7 -22
-15 -4 -8 -12 -15 -20 -15 -17 0 -18 17 -1 23 8 4 8 6 -2 6 -8 1 -23 -6 -33
-16 -28 -25 -33 -8 -8 31 22 37 23 41 5 28z m95 -117 c0 -22 -4 -25 -39 -25
-43 0 -68 19 -49 38 7 7 29 12 50 12 34 0 38 -3 38 -25z"/>
<path d="M857 1074 c-4 -4 -7 -34 -7 -68 0 -59 13 -69 23 -16 2 14 4 -13 5
-60 0 -63 -2 -76 -8 -51 -4 18 -17 46 -29 62 -12 15 -21 42 -21 59 0 44 -34
38 -38 -7 -4 -41 12 -71 44 -83 23 -9 24 -14 22 -75 l-3 -65 33 0 c32 0 32 0
32 50 0 35 4 50 13 50 26 0 47 36 47 79 0 35 -3 42 -17 39 -12 -2 -19 -14 -21
-33 -7 -68 -17 -54 -22 30 -4 81 -7 90 -25 93 -12 2 -24 0 -28 -4z"/>
<path d="M1135 1020 c-3 -4 -8 -40 -11 -79 -8 -78 -20 -89 -52 -44 -21 28 -42
24 -42 -8 0 -13 11 -25 33 -34 34 -14 71 -48 62 -57 -3 -3 5 -13 17 -24 12
-10 18 -13 13 -5 -5 9 -3 12 6 9 8 -3 13 -15 11 -27 -1 -12 5 -29 13 -37 8 -9
15 -22 15 -31 0 -16 38 -52 56 -53 6 0 19 9 29 20 10 11 26 20 35 20 25 0 68
-36 87 -73 9 -18 18 -27 20 -20 7 19 -26 73 -52 85 -14 6 -25 15 -25 20 0 5
-9 7 -20 3 -16 -5 -19 -3 -14 12 5 15 3 14 -13 -3 -28 -34 -56 -38 -79 -12
-35 39 -26 80 27 126 25 23 57 44 72 47 32 8 43 34 22 54 -15 15 -18 14 -36
-11 -30 -40 -49 -36 -50 10 0 20 -3 55 -7 77 l-7 40 -53 1 c-29 0 -55 -2 -57
-6z m90 -49 c8 -28 -4 -51 -29 -51 -29 0 -42 11 -42 35 0 24 13 35 43 35 12 0
24 -8 28 -19z m23 -83 c3 -16 -5 -18 -57 -18 -44 0 -61 4 -61 13 0 23 13 28
65 25 38 -2 51 -7 53 -20z m-4 -73 c-21 -19 -46 -34 -54 -34 -8 0 -33 15 -54
34 l-39 35 93 0 93 0 -39 -35z"/>
<path d="M2111 1000 c-6 -18 -27 -47 -46 -66 l-36 -33 28 -18 c16 -10 31 -22
35 -28 5 -6 8 -5 8 3 0 19 20 14 21 -5 0 -14 2 -15 6 -3 3 8 17 25 31 38 20
19 23 30 19 60 -4 20 -17 47 -30 60 l-24 24 -12 -32z m49 -58 c0 -15 -32 -52
-45 -52 -13 0 -15 24 -2 36 4 4 7 16 7 26 0 16 3 17 20 8 11 -6 20 -14 20 -18z"/>
<path d="M1515 985 c-34 -33 -31 -43 12 -47 27 -2 39 -8 41 -20 3 -15 -4 -18
-47 -18 l-51 0 0 -35 c0 -31 3 -35 25 -35 14 0 30 9 37 19 11 18 12 18 27 -1
21 -25 63 -16 92 21 27 33 21 97 -11 123 -33 27 -95 23 -125 -7z m106 -17 c23
-28 25 -74 3 -82 -21 -8 -34 1 -34 24 0 10 -9 25 -20 33 -25 17 -17 47 12 47
11 0 28 -10 39 -22z m-93 -110 c-7 -20 -48 -23 -48 -4 0 11 9 16 26 16 16 0
24 -5 22 -12z"/>
<path d="M2288 985 c-7 -9 -19 -21 -26 -28 -7 -7 -22 -20 -33 -29 -27 -25 -26
-82 3 -102 34 -24 41 -19 17 13 -29 40 -19 74 31 106 22 14 40 32 40 40 0 19
-16 19 -32 0z"/>
<path d="M502 834 c-9 -8 -25 -14 -34 -14 -22 0 -23 -13 -3 -30 8 -7 15 -22
15 -34 -1 -20 -2 -20 -14 -3 -17 22 -61 24 -52 1 3 -9 6 -20 6 -25 0 -18 52
-9 75 13 19 18 32 21 99 19 76 -2 77 -2 74 21 -2 13 -10 23 -18 23 -22 1 -63
16 -80 30 -19 16 -46 15 -68 -1z m56 -20 c38 -11 27 -34 -16 -34 -45 0 -56 8
-41 27 13 14 23 16 57 7z"/>
<path d="M2376 825 c19 -14 19 -14 -3 -15 -12 0 -25 -4 -28 -10 -3 -6 4 -10
16 -10 18 0 20 -3 11 -12 -7 -7 -12 -18 -12 -26 0 -7 11 -1 25 15 l25 28 20
-24 c11 -13 23 -21 27 -18 3 4 0 13 -7 22 -10 13 -9 15 9 15 12 0 19 5 16 10
-3 6 -15 10 -27 10 -17 0 -18 2 -8 15 15 18 -1 20 -18 3 -9 -9 -15 -9 -24 0
-7 7 -19 12 -27 12 -11 0 -10 -4 5 -15z"/>
<path d="M985 811 c-51 -6 -52 -13 -2 -25 17 -4 35 -2 42 4 8 6 26 15 42 20
l28 8 -30 0 c-16 -1 -52 -4 -80 -7z"/>
<path d="M1509 762 c-24 -12 -33 -23 -32 -37 2 -11 6 -48 9 -82 5 -43 11 -63
21 -63 10 0 12 14 7 69 -5 55 -3 73 10 92 l16 23 1 -24 1 -25 8 25 c8 25 8 24
9 -5 1 -23 3 -27 11 -15 12 19 14 5 11 -90 -1 -48 -18 -53 -24 -7 -4 31 -4 31
-5 -5 -2 -28 2 -38 13 -38 24 0 17 -20 -7 -21 -22 0 -22 -1 2 -12 24 -11 24
-11 -14 -15 -21 -2 -43 1 -49 7 -8 8 -4 11 14 12 24 0 24 0 2 11 -17 8 -25 7
-38 -6 -10 -9 -33 -16 -56 -16 -47 0 -53 -22 -11 -38 53 -20 62 -21 84 -12 13
5 17 9 9 9 -8 1 -11 4 -8 8 4 3 15 -1 25 -10 10 -9 30 -15 47 -13 l30 3 7 109
c4 60 9 117 12 126 5 20 -8 32 -46 47 -19 7 -34 6 -59 -7z"/>
<path d="M1970 761 c0 -10 7 -24 15 -31 32 -27 18 -41 -37 -36 -29 3 -61 5
-71 5 -17 1 -17 2 -1 18 9 10 27 17 40 18 12 0 26 3 30 8 4 4 -8 7 -28 7 -35
0 -59 -17 -71 -52 -6 -16 2 -18 79 -18 l86 0 -6 34 c-6 31 -5 34 14 29 14 -4
19 -11 15 -24 -3 -11 -7 -27 -10 -36 -4 -16 -16 -18 -95 -15 -49 2 -90 0 -90
-5 1 -30 22 -37 119 -39 l101 -3 0 27 c0 15 3 51 6 80 l7 52 -52 0 c-43 0 -51
-3 -51 -19z m-2 -118 c-21 -2 -55 -2 -75 0 -21 2 -4 4 37 4 41 0 58 -2 38 -4z"/>
<path d="M2400 718 c0 -32 4 -58 10 -58 13 0 13 80 0 100 -7 11 -10 -2 -10
-42z"/>
<path d="M2228 731 c22 -14 -30 -22 -69 -11 -76 22 -76 4 -1 -20 35 -11 48
-11 63 -2 16 10 25 8 57 -13 25 -17 38 -21 41 -13 2 7 -1 14 -8 16 -6 2 -8 9
-4 15 4 7 -2 5 -12 -3 -17 -14 -18 -13 -13 8 6 23 -6 30 -18 11 -5 -8 -10 -6
-16 5 -5 9 -14 16 -21 16 -8 0 -8 -3 1 -9z"/>
<path d="M456 693 c-3 -8 -10 -11 -16 -8 -5 3 -10 -1 -10 -9 0 -19 11 -21 27
-5 22 22 102 -12 91 -39 -5 -15 -117 -102 -144 -112 -14 -6 -36 -10 -50 -10
-13 0 -24 -3 -24 -8 0 -4 21 -5 46 -3 46 3 140 51 127 64 -12 13 42 47 66 41
22 -5 22 -4 7 11 -9 9 -16 27 -16 40 0 28 -4 31 -58 43 -32 8 -42 7 -46 -5z"/>
<path d="M1742 679 c-13 -5 -29 -6 -35 -2 -7 4 -5 -2 3 -12 13 -17 13 -18 0
-14 -9 3 -32 -11 -55 -33 -47 -46 -23 -40 48 10 40 29 53 33 85 28 32 -6 34
-5 17 6 -11 6 -22 11 -24 9 -2 -1 -7 2 -10 7 -4 6 -15 6 -29 1z"/>
<path d="M387 674 c-4 -4 -3 -12 0 -18 4 -6 8 -18 10 -26 1 -8 6 -16 12 -18 5
-2 8 -9 5 -16 -3 -8 4 -16 17 -19 32 -9 34 -2 10 25 -12 12 -21 29 -20 38 3
29 -1 40 -14 40 -8 0 -17 -3 -20 -6z"/>
<path d="M626 626 c-3 -13 -9 -31 -12 -40 -4 -11 0 -16 13 -16 27 0 90 -46 98
-71 6 -17 9 -19 16 -8 7 11 13 9 31 -10 18 -19 19 -22 6 -18 -12 4 -18 1 -18
-8 0 -17 16 -20 25 -5 4 6 11 8 16 5 21 -14 6 13 -30 54 -25 28 -44 42 -54 38
-9 -3 -18 1 -21 9 -3 8 -12 14 -21 14 -11 0 -15 11 -15 40 0 45 -24 56 -34 16z"/>
<path d="M683 620 c2 -30 11 -38 22 -20 8 13 -3 50 -15 50 -5 0 -8 -13 -7 -30z"/>
<path d="M2240 621 c0 -5 -20 -13 -45 -16 -101 -16 -67 -65 45 -65 46 0 61 -3
50 -10 -11 -7 -7 -10 18 -10 17 0 32 5 32 10 0 6 15 10 33 10 17 0 28 -4 22
-8 -19 -13 -17 -33 2 -23 54 27 73 33 88 27 31 -11 12 -40 -33 -50 -40 -8 -59
-26 -27 -26 8 0 15 -5 15 -12 0 -9 3 -9 12 0 7 7 24 12 38 12 60 0 95 62 66
118 -8 16 -23 33 -33 37 -29 12 -283 17 -283 6z m269 -45 c10 -9 18 -23 18
-32 0 -15 -2 -14 -13 1 -17 23 -83 29 -91 9 -4 -11 -9 -12 -18 -4 -17 14 -83
22 -90 10 -3 -5 -18 -1 -35 8 l-30 17 28 7 c49 13 212 1 231 -16z"/>
<path d="M1480 466 c0 -7 55 -36 70 -36 5 0 10 7 10 15 0 9 -9 15 -24 15 -13
0 -31 3 -40 6 -9 3 -16 4 -16 0z"/>
<path d="M524 439 c-7 -12 15 -31 28 -23 4 3 8 12 8 20 0 17 -26 19 -36 3z"/>
<path d="M657 394 c-11 -11 5 -34 24 -34 22 0 24 11 7 28 -13 13 -22 15 -31 6z"/>
<path d="M930 365 c-7 -8 -9 -23 -4 -37 7 -23 7 -23 -15 -4 -20 18 -23 18 -37
4 -22 -22 -9 -62 17 -55 23 6 25 -2 3 -17 -18 -13 -9 -46 12 -46 8 0 17 0 22
-1 4 0 10 10 13 23 l6 23 11 -27 c8 -19 16 -25 31 -21 31 8 35 35 9 55 l-23
19 26 -6 c21 -5 27 -2 32 16 9 33 -21 53 -47 31 -18 -16 -18 -16 -12 6 7 22
-7 52 -24 52 -4 0 -13 -7 -20 -15z m35 -81 c0 -10 -8 -20 -17 -22 -18 -3 -26
27 -11 42 12 11 28 0 28 -20z"/>
<path d="M730 350 c0 -5 11 -10 24 -10 14 0 28 5 31 10 4 6 -7 10 -24 10 -17
0 -31 -4 -31 -10z"/>
<path d="M790 334 c0 -10 28 -34 39 -34 18 0 12 19 -8 30 -22 11 -31 13 -31 4z"/>
<path d="M856 235 c-7 -20 4 -78 18 -87 5 -4 16 2 24 13 7 10 19 19 27 19 8 0
16 4 20 10 3 5 -7 5 -25 -2 -37 -13 -52 -2 -52 36 0 30 -3 32 -12 11z"/>
</g>
</svg>
