<?xml version="1.0" standalone="no"?>
<!DOCTYPE svg PUBLIC "-//W3C//DTD SVG 20010904//EN"
 "http://www.w3.org/TR/2001/REC-SVG-20010904/DTD/svg10.dtd">
<svg version="1.0" xmlns="http://www.w3.org/2000/svg"
 width="300.000000pt" height="300.000000pt" viewBox="0 0 300.000000 300.000000"
 preserveAspectRatio="xMidYMid meet">
<metadata>
Created by potrace 1.10, written by Peter Selinger 2001-2011
</metadata>
<g transform="translate(0.000000,300.000000) scale(0.100000,-0.100000)"
fill="#000000" stroke="none">
<path d="M1510 2715 c0 -68 -2 -77 -20 -82 -11 -3 -20 -10 -20 -15 0 -5 5 -6
10 -3 6 3 10 2 10 -3 0 -6 -7 -12 -15 -16 -16 -6 -21 -62 -6 -68 9 -3 -59
-907 -74 -995 -4 -25 -12 -33 -35 -38 -17 -4 -30 -8 -30 -10 0 -1 7 -21 15
-44 11 -33 12 -53 4 -98 -12 -62 -51 -177 -80 -236 -11 -20 -18 -37 -17 -37
23 1 152 51 159 61 5 8 14 47 21 86 l12 73 72 0 72 0 10 -47 c6 -27 13 -65 17
-85 7 -36 9 -37 87 -62 43 -14 81 -26 82 -26 2 0 -9 26 -25 58 -26 55 -55 146
-76 237 -7 31 -5 48 8 75 20 41 18 46 -21 55 -17 4 -30 13 -30 21 0 13 -58
737 -76 942 -4 49 -2 72 5 72 6 0 11 14 11 30 0 23 -6 33 -22 39 -21 8 -21 10
-5 16 17 7 16 9 -4 19 -20 10 -22 17 -20 78 1 38 -2 69 -8 73 -8 4 -11 -19
-11 -70z m29 -475 c6 -36 17 -153 26 -260 9 -107 18 -206 20 -220 3 -14 7 -85
10 -157 5 -116 4 -133 -10 -133 -8 0 -15 -4 -15 -8 0 -4 9 -8 20 -8 16 0 20 7
21 36 1 23 3 27 6 13 3 -15 12 -23 26 -24 12 0 17 -3 10 -5 -9 -4 -9 -13 -2
-31 8 -21 7 -24 -6 -19 -8 3 -15 1 -15 -3 0 -5 8 -12 17 -15 12 -5 14 -9 6
-14 -9 -6 -6 -32 11 -104 14 -53 29 -105 35 -116 15 -28 14 -42 -2 -42 -24 0
-47 35 -57 88 -5 28 -15 60 -22 71 -13 22 -98 56 -98 40 0 -5 -17 -9 -38 -9
-51 0 -67 -20 -83 -98 -14 -65 -37 -99 -63 -89 -12 5 -10 19 13 89 16 46 32
102 36 125 4 24 10 45 14 47 6 4 6 27 2 69 -1 4 -5 7 -10 7 -6 0 -12 -17 -14
-37 l-4 -38 -1 38 c-2 41 17 58 43 37 9 -8 15 -8 15 -2 0 6 6 12 13 15 6 2 2
2 -10 1 -12 -2 -25 0 -28 6 -3 5 0 10 8 10 19 0 19 4 62 560 18 245 31 457 28
472 -3 15 -1 36 3 45 5 11 11 -36 15 -127 4 -80 12 -174 18 -210z"/>
<path d="M1900 1905 c-5 -108 -6 -119 -18 -142 -7 -12 -12 -42 -12 -68 0 -29
-9 -64 -25 -95 -20 -39 -24 -58 -19 -90 4 -25 3 -40 -4 -40 -6 0 -12 5 -14 10
-6 20 1 -187 8 -214 3 -14 3 -34 -1 -43 -11 -28 -5 -157 8 -165 24 -15 27 -7
25 65 -1 62 -2 65 -5 20 -5 -67 -23 -70 -23 -4 0 40 4 51 19 56 13 4 17 12 14
29 -4 18 1 25 19 31 22 8 22 8 -7 12 -67 10 -46 23 37 23 48 0 90 -4 93 -10 4
-6 -13 -10 -42 -11 -44 -1 -46 -1 -20 -11 19 -7 27 -17 27 -33 0 -26 26 -41
33 -19 3 9 4 7 3 -3 -1 -10 -8 -17 -14 -15 -7 1 -12 -9 -11 -25 1 -17 3 -21 6
-10 2 9 9 17 13 17 11 0 -3 -39 -26 -74 -10 -16 -13 -33 -9 -47 6 -18 11 -11
29 42 19 58 21 61 24 32 2 -17 -4 -46 -13 -62 -18 -36 -4 -42 17 -8 25 38 29
70 11 90 -14 15 -17 42 -15 185 1 124 -1 162 -9 149 -6 -11 -12 -25 -13 -33
-1 -8 -6 -14 -12 -13 -5 0 -8 5 -6 10 1 5 -23 9 -53 8 -43 -2 -55 -6 -56 -18
0 -12 -3 -11 -9 4 -7 18 -8 16 -12 -10 -5 -28 -5 -27 -7 8 0 20 4 37 9 37 6 0
11 15 11 33 l2 32 7 -35 7 -35 3 35 3 35 7 -35 7 -35 2 33 c1 29 4 32 31 32
24 0 30 -4 31 -22 0 -22 1 -22 9 -3 7 17 9 16 9 -9 1 -35 14 -27 19 12 2 15 5
28 7 31 2 2 -8 27 -22 55 -17 34 -25 65 -24 94 0 23 -6 56 -14 72 -8 16 -15
51 -16 77 0 26 -4 68 -8 93 -8 44 -9 44 -11 -25z m40 -315 c11 -22 20 -42 20
-45 0 -3 -22 -5 -50 -5 -55 0 -56 2 -36 51 25 60 35 60 66 -1z m-2 -176 c31
-21 30 -69 -2 -89 -26 -17 -50 -11 -75 19 -18 21 -6 60 21 74 31 14 30 14 56
-4z"/>
<path d="M1142 1863 c2 -10 10 -18 18 -18 22 0 18 29 -3 33 -14 3 -18 -1 -15
-15z"/>
<path d="M934 1859 c-3 -6 -2 -15 4 -21 13 -13 32 -2 32 18 0 16 -26 19 -36 3z"/>
<path d="M1149 1828 c0 -2 -2 -28 -5 -58 -4 -51 -3 -53 11 -36 17 22 21 96 5
96 -5 0 -10 -1 -11 -2z"/>
<path d="M1223 1814 c-8 -20 8 -36 26 -25 15 10 8 41 -9 41 -6 0 -13 -7 -17
-16z"/>
<path d="M861 1811 c-15 -10 -8 -41 9 -41 15 0 25 29 14 40 -5 5 -15 5 -23 1z"/>
<path d="M944 1774 c2 -25 10 -51 16 -58 10 -8 11 -2 6 29 -3 22 -6 48 -6 58
0 9 -5 17 -10 17 -6 0 -9 -19 -6 -46z"/>
<path d="M1226 1723 c-6 -45 -2 -63 10 -50 4 3 9 26 11 52 7 60 -12 59 -21 -2z"/>
<path d="M860 1731 c0 -16 -3 -38 -7 -48 -3 -10 -3 -15 2 -11 4 4 14 0 22 -10
13 -16 14 -15 9 8 -3 14 -6 40 -6 58 0 17 -4 32 -10 32 -5 0 -10 -13 -10 -29z"/>
<path d="M1147 1704 c-4 -4 -7 -27 -7 -51 0 -38 3 -43 23 -43 21 0 23 3 17 47
-5 44 -18 62 -33 47z"/>
<path d="M936 1688 c-12 -34 -11 -88 0 -88 7 0 11 8 9 18 -5 31 9 38 16 7 6
-23 7 -19 6 19 -2 47 -21 75 -31 44z"/>
<path d="M1227 1644 c-4 -4 -6 -46 -5 -93 l2 -86 6 80 c3 44 7 62 8 40 2 -27
5 -36 11 -26 7 11 9 11 14 0 4 -10 6 -9 6 3 1 9 -5 19 -11 21 -9 4 -9 6 -1 6
7 1 9 10 4 28 -7 27 -22 39 -34 27z"/>
<path d="M850 1614 c-13 -32 -13 -85 -1 -65 7 11 9 11 14 0 3 -8 6 4 8 26 l2
40 7 -40 7 -40 2 46 c1 55 -23 76 -39 33z"/>
<path d="M1133 1580 c-1 -11 2 -20 8 -20 5 0 9 6 9 14 0 8 10 17 23 19 17 3
15 5 -8 6 -24 1 -31 -3 -32 -19z"/>
<path d="M1130 1525 c0 -18 5 -25 20 -25 11 0 20 5 20 10 0 6 -6 9 -12 8 -7
-2 -12 5 -10 15 2 9 -2 17 -8 17 -5 0 -10 -11 -10 -25z"/>
<path d="M2246 1499 c-11 -17 -13 -26 -4 -36 28 -34 61 1 35 37 l-15 21 -16
-22z"/>
<path d="M1130 1473 c0 -12 7 -19 20 -19 14 0 20 7 19 21 0 11 -3 14 -6 7 -4
-10 -8 -10 -19 -1 -11 9 -14 8 -14 -8z"/>
<path d="M1020 1444 c0 -10 6 -14 14 -11 8 3 17 1 20 -6 3 -8 5 -6 5 3 1 11 3
12 9 3 6 -9 11 -7 20 7 11 19 9 20 -28 20 -30 0 -40 -4 -40 -16z"/>
<path d="M1133 1370 c0 -36 2 -50 4 -32 2 17 2 47 0 65 -2 17 -4 3 -4 -33z"/>
<path d="M2227 1361 c-19 -74 -15 -106 8 -74 13 17 14 17 20 0 7 -16 8 -16 20
-1 11 16 13 16 23 -2 21 -37 23 8 4 76 -14 49 -24 66 -38 68 -16 2 -22 -9 -37
-67z"/>
<path d="M973 1360 c0 -36 2 -50 4 -32 2 17 2 47 0 65 -2 17 -4 3 -4 -33z"/>
<path d="M1152 1357 l2 -62 5 55 5 55 6 -60 7 -60 1 61 c2 47 -2 63 -13 68
-12 4 -15 -5 -13 -57z"/>
<path d="M953 1350 c0 -36 2 -50 4 -32 2 17 2 47 0 65 -2 17 -4 3 -4 -33z"/>
<path d="M933 1340 c0 -36 2 -50 4 -32 2 17 2 47 0 65 -2 17 -4 3 -4 -33z"/>
<path d="M1193 1340 c0 -36 2 -50 4 -32 2 17 2 47 0 65 -2 17 -4 3 -4 -33z"/>
<path d="M913 1325 c0 -38 2 -53 4 -32 2 20 2 52 0 70 -2 17 -4 1 -4 -38z"/>
<path d="M1046 1371 c-4 -6 -18 -11 -32 -11 -20 0 -24 -5 -24 -30 l0 -30 65 0
65 0 0 30 c0 25 -4 30 -23 30 -13 0 -28 5 -34 11 -8 8 -13 8 -17 0z"/>
<path d="M2129 1372 c0 -4 0 -70 0 -146 0 -92 4 -143 11 -150 9 -8 11 7 8 63
-3 67 -3 71 9 45 24 -57 14 -124 -18 -124 -27 0 -40 40 -28 84 6 20 6 43 1 51
-14 26 -52 -24 -61 -83 -4 -28 -14 -59 -22 -69 -12 -16 -12 -17 1 -7 8 6 23
10 33 9 18 -3 24 10 9 19 -14 9 4 96 23 114 17 16 17 16 11 -3 -15 -40 -18
-85 -8 -98 7 -8 7 -18 2 -27 -6 -8 -10 -30 -10 -49 0 -28 3 -33 20 -28 11 3
23 1 26 -4 10 -17 24 2 24 32 0 16 5 29 11 29 5 0 9 -12 7 -27 -2 -16 1 -29 6
-30 5 -1 14 -12 20 -24 14 -27 30 -27 34 1 4 21 17 27 27 11 3 -5 1 -12 -5
-16 -6 -4 -8 -11 -4 -16 3 -6 12 -5 22 3 13 11 14 11 7 -1 -5 -10 -4 -12 3 -7
7 4 12 16 12 27 0 10 5 19 10 19 6 0 10 -9 10 -20 0 -29 37 -27 43 3 l4 22 2
-22 c0 -13 5 -23 11 -23 5 0 7 6 4 13 -8 22 21 40 45 28 20 -11 51 -5 51 9 0
5 -6 11 -12 13 -10 4 -10 6 0 6 6 1 12 12 12 26 0 22 -4 25 -33 25 -34 0 -61
-27 -52 -52 4 -10 -19 -14 -100 -16 l-105 -3 0 31 c0 28 -2 30 -42 32 l-43 1
45 7 c25 4 39 8 33 8 -10 2 -10 8 -1 27 9 20 9 34 -1 60 -7 19 -9 40 -5 46 4
7 3 9 -4 6 -6 -5 -15 19 -22 64 -10 59 -10 73 1 80 12 7 11 9 -1 9 -12 0 -12
2 -2 9 11 7 11 9 -2 14 -9 4 -16 3 -17 -1z"/>
<path d="M2419 1378 c0 -2 -1 -36 -2 -75 -2 -67 -5 -75 -35 -106 -33 -34 -39
-51 -23 -61 5 -4 7 3 4 14 -3 11 -1 20 5 20 5 0 13 -12 16 -26 9 -33 35 -74
48 -74 6 0 7 8 3 18 -24 56 -35 97 -30 111 8 19 45 -60 48 -101 3 -38 22 -42
47 -11 29 37 25 59 -19 102 -43 42 -58 88 -47 145 4 20 2 37 -4 41 -5 3 -10 5
-11 3z m70 -261 l-1 -32 -7 30 c-4 17 -16 44 -25 60 l-18 30 26 -28 c18 -19
26 -38 25 -60z"/>
<path d="M1212 1314 c-2 -56 0 -62 23 -72 l25 -12 -2 63 c-1 61 -1 62 -8 17
l-7 -45 -3 50 -3 50 -6 -45 -5 -45 -6 50 -7 50 -1 -61z"/>
<path d="M873 1350 c-20 -8 -23 -17 -25 -67 l-1 -58 -6 55 -6 55 -7 -40 c-11
-56 -10 -95 2 -95 6 0 10 4 10 8 0 4 14 13 30 19 29 11 30 14 30 72 0 34 -1
61 -2 60 -2 0 -13 -4 -25 -9z m8 -71 c-5 -24 -9 -35 -10 -24 -1 11 -4 31 -7
45 -4 20 -3 22 5 10 9 -13 11 -12 11 4 0 11 2 17 5 15 2 -3 1 -25 -4 -50z"/>
<path d="M1271 1276 c0 -39 3 -66 7 -60 5 5 6 36 2 69 l-7 60 -2 -69z"/>
<path d="M2187 1258 c-7 -4 28 -8 77 -8 49 0 87 3 84 6 -9 8 -148 10 -161 2z"/>
<path d="M2188 1213 c-2 -16 3 -38 10 -49 8 -14 11 -42 8 -80 -5 -69 0 -84 25
-84 12 0 19 7 19 20 0 11 4 20 10 20 21 0 -4 29 -28 33 -24 4 -23 4 6 6 17 0
32 5 32 10 0 5 -8 8 -17 6 -10 -1 -12 0 -5 2 6 3 12 8 12 13 0 5 -7 7 -15 4
-8 -4 -15 -1 -15 6 0 6 4 9 9 5 5 -3 12 -1 16 5 4 6 10 8 15 5 4 -3 10 5 13
16 4 14 11 20 20 16 21 -8 37 12 37 45 l0 28 -74 0 c-74 0 -75 0 -78 -27z m37
-13 c-3 -5 -2 -10 4 -10 5 0 12 6 14 13 3 6 6 2 6 -10 1 -17 -3 -21 -16 -16
-15 5 -14 3 2 -10 11 -8 16 -19 12 -24 -11 -10 -37 25 -37 49 0 10 5 18 11 18
5 0 7 -4 4 -10z m66 -2 c0 -10 2 -10 6 0 7 19 22 14 20 -7 -2 -28 -46 -17 -47
12 0 12 20 8 21 -5z"/>
<path d="M1200 1187 c0 -26 4 -47 9 -47 8 0 3 79 -5 89 -2 2 -4 -17 -4 -42z"/>
<path d="M897 1213 c-11 -10 -8 -83 3 -83 6 0 10 20 10 45 0 46 -2 50 -13 38z"/>
<path d="M1000 1163 l-1 -58 -105 -75 c-95 -68 -158 -121 -91 -77 34 22 37 21
37 -4 0 -11 -4 -17 -10 -14 -6 4 -18 -11 -27 -33 l-15 -40 -70 -1 c-39 0 -79
4 -89 10 -24 12 -25 39 -2 39 12 0 14 3 6 11 -15 15 -95 7 -101 -10 -3 -8 0
-11 7 -7 6 4 11 1 11 -9 0 -8 -6 -18 -14 -21 -19 -7 -29 -34 -17 -48 5 -6 11
-36 14 -66 l3 -55 2 62 c1 34 7 65 12 68 6 3 10 1 10 -4 0 -6 11 -11 25 -11
41 0 31 28 -12 33 l-38 4 43 1 c36 2 42 -1 42 -18 0 -19 7 -20 111 -20 71 0
108 4 104 10 -3 6 -21 11 -38 11 -30 2 -31 2 -4 6 15 2 27 9 27 14 0 5 16 9
35 9 20 0 50 7 67 16 29 15 34 15 65 0 18 -9 47 -16 63 -16 17 0 30 -4 30 -9
0 -5 20 -9 44 -9 l44 0 -15 56 c-17 66 -53 140 -80 164 -19 17 -20 17 -41 -5
-11 -12 -30 -44 -42 -70 -15 -33 -27 -47 -40 -47 -15 0 -20 7 -20 25 0 23 -2
24 -21 15 -11 -7 -26 -25 -33 -42 l-13 -30 -11 30 -10 30 101 68 c56 37 106
67 112 67 6 0 36 -17 68 -38 65 -43 89 -42 28 1 -38 27 -41 32 -41 81 0 69
-18 78 -23 11 l-3 -53 -2 53 c-2 59 -22 64 -22 6 0 -19 -5 -34 -10 -34 -6 0
-8 11 -4 25 3 14 3 33 -2 42 -6 13 -10 2 -14 -37 l-7 -55 -1 53 c-3 71 -22 66
-22 -5z m60 -138 c0 -8 5 -15 11 -15 11 0 33 -48 44 -97 7 -36 -6 -45 -21 -15
-7 14 -15 17 -34 11 -24 -7 -24 -7 -2 -8 27 -1 30 -21 3 -21 -10 0 -30 15 -45
34 l-26 35 25 37 c14 20 25 41 25 45 0 5 5 9 10 9 6 0 10 -7 10 -15z m-156
-97 c-37 -44 -74 -63 -74 -38 0 6 7 10 16 10 9 0 27 11 40 25 29 31 44 33 18
3z m-302 -33 c4 -20 1 -25 -16 -25 -16 0 -21 6 -21 25 0 16 6 25 16 25 10 0
19 -10 21 -25z"/>
<path d="M1863 1115 c0 -44 2 -61 4 -37 2 23 2 59 0 80 -2 20 -4 1 -4 -43z"/>
<path d="M1883 1110 c0 -41 2 -58 4 -37 2 20 2 54 0 75 -2 20 -4 3 -4 -38z"/>
<path d="M1900 1105 l-5 -80 -362 -3 c-237 -1 -363 -6 -363 -12 0 -7 121 -10
356 -8 l356 3 -5 -48 -4 -48 46 3 c41 3 46 1 49 -19 2 -14 10 -23 21 -23 12 0
22 -13 30 -40 8 -28 17 -40 31 -40 11 0 27 -15 41 -40 13 -22 26 -40 31 -40 5
0 1 11 -7 24 -16 23 -15 25 7 29 20 4 20 4 -4 6 -16 0 -28 6 -28 12 0 6 17 9
43 7 26 -2 41 -8 40 -15 -5 -26 17 -63 37 -63 11 0 20 6 20 13 0 20 -12 28
-25 17 -16 -13 -27 21 -14 41 8 14 46 15 277 7 39 -2 72 -2 72 -1 0 1 -5 14
-12 28 -12 27 -26 32 -33 13 -4 -10 -55 -13 -213 -12 -114 0 -217 2 -229 2
-33 3 -28 19 7 24 17 3 30 1 30 -3 0 -3 9 -9 20 -12 18 -5 20 0 20 44 0 46 -2
49 -25 49 -25 0 -33 -14 -15 -25 18 -11 11 -41 -10 -42 -22 -2 -23 18 0 29 8
5 -4 7 -27 5 -24 -1 -43 1 -43 5 0 5 4 8 9 8 5 0 12 8 14 18 4 16 5 16 6 0 1
-22 31 -24 31 -3 0 8 5 15 11 15 5 0 7 5 4 10 -10 16 -65 12 -65 -5 0 -22 -50
-20 -51 3 0 10 -3 12 -6 5 -9 -24 -22 -13 -30 25 l-7 37 -7 -40 -6 -40 -3 40
-3 40 -7 -45 -7 -45 -1 47 c-1 28 3 50 11 55 9 6 11 30 7 88 l-6 80 -4 -80z"/>
<path d="M1951 1157 c-1 -16 -5 -36 -10 -45 -15 -28 -17 -85 -4 -89 9 -3 11 4
7 26 -4 20 -1 39 9 55 12 17 14 31 7 52 l-8 29 -1 -28z"/>
<path d="M1449 1114 c-35 -12 -103 -34 -151 -49 -49 -14 -88 -27 -88 -28 0 -1
137 -2 304 -2 167 0 302 3 299 8 -2 4 -10 7 -18 7 -7 0 -74 20 -148 43 l-134
44 -64 -23z m119 -27 c6 0 12 -6 12 -14 0 -9 -17 -13 -65 -13 -36 0 -65 4 -65
9 0 15 52 30 80 24 14 -3 31 -6 38 -6z"/>
<path d="M1975 985 c0 -28 15 -38 36 -24 9 5 10 9 2 9 -6 0 -15 9 -18 20 -9
28 -20 25 -20 -5z"/>
<path d="M1192 911 l3 -59 33 0 32 0 0 59 0 59 -36 0 -35 0 3 -59z"/>
<path d="M1290 945 c0 -22 4 -25 39 -25 35 0 38 2 33 25 -4 21 -10 25 -38 25
-30 0 -34 -3 -34 -25z"/>
<path d="M1389 903 c-1 -37 -3 -60 -6 -50 -3 12 -15 17 -43 17 -34 0 -38 2
-34 23 l5 22 -10 -22 c-6 -13 -15 -23 -21 -23 -5 0 -10 -7 -10 -15 0 -12 -17
-15 -94 -15 -53 0 -98 -4 -101 -10 -4 -6 33 -10 104 -10 104 0 111 1 111 20 0
17 6 20 43 18 l42 -1 -37 -4 c-25 -3 -38 -9 -38 -19 0 -17 46 -19 54 -1 5 9 7
9 12 -1 3 -6 10 -10 15 -6 5 3 9 -7 9 -21 0 -22 3 -26 18 -20 9 4 24 9 32 12
12 3 15 22 15 86 l0 82 -32 3 -33 3 -1 -68z"/>
<path d="M1489 963 c-1 -5 -2 -41 -3 -80 l-1 -73 33 0 32 0 0 80 0 80 -30 0
c-16 0 -30 -3 -31 -7z"/>
<path d="M1580 886 c0 -71 3 -84 18 -89 9 -2 25 -8 35 -12 15 -7 17 1 17 89
l0 96 -35 0 -35 0 0 -84z"/>
<path d="M1680 863 c0 -96 2 -109 22 -130 l21 -23 -166 0 c-152 0 -167 -2
-176 -19 -6 -10 -7 -21 -4 -25 3 -3 -3 -6 -14 -6 -19 0 -20 5 -16 50 4 46 3
50 -17 50 -20 0 -22 -4 -18 -50 l3 -50 -121 0 c-140 0 -134 -4 -134 96 0 57
-2 64 -20 64 -18 0 -20 -7 -20 -65 0 -37 -4 -65 -10 -65 -6 0 -10 28 -10 65 0
37 -4 65 -10 65 -6 0 -10 -29 -10 -67 0 -80 -12 -77 -14 3 -1 38 -6 59 -14 62
-10 3 -13 -10 -11 -57 1 -33 -1 -64 -4 -68 -4 -3 -7 24 -7 60 0 38 -4 67 -10
67 -6 0 -10 -28 -10 -65 0 -37 -4 -65 -10 -65 -6 0 -10 28 -10 65 0 58 -2 65
-20 65 -18 0 -20 -7 -20 -64 0 -100 6 -96 -134 -96 l-121 0 3 50 c4 46 2 50
-18 50 -20 0 -21 -4 -18 -50 3 -37 1 -50 -9 -50 -7 0 -13 9 -13 20 0 11 -4 20
-10 20 -5 0 -10 -9 -10 -19 0 -11 -8 -22 -18 -24 -9 -3 297 -5 681 -6 459 -1
697 2 697 9 0 6 -88 10 -245 10 -157 0 -245 4 -245 10 0 6 88 10 245 10 157 0
245 4 245 10 0 6 -9 10 -20 10 -19 0 -20 7 -20 131 l0 130 -31 -3 -31 -3 1
-127 c2 -126 2 -128 -20 -128 -22 0 -22 1 -16 130 l7 130 -35 0 -35 0 0 -107z"/>
<path d="M2445 940 l-30 -8 30 -2 c42 -4 -52 -18 -126 -19 -54 -1 -56 -2 -51
-26 3 -20 0 -25 -17 -25 -12 0 -21 6 -21 15 0 8 -4 15 -10 15 -5 0 -10 -9 -10
-20 0 -11 -7 -20 -15 -20 -9 0 -15 10 -15 26 0 14 4 23 8 20 4 -2 14 -1 22 5
11 6 12 9 2 9 -7 0 -11 4 -8 8 3 5 -8 6 -25 4 -27 -4 -29 -7 -29 -49 l0 -46
38 7 c20 3 52 6 70 6 20 0 32 5 31 13 -4 29 2 48 12 42 6 -4 8 -14 4 -22 -5
-13 -3 -14 10 -3 12 10 13 15 4 21 -6 4 1 6 17 5 16 -1 34 -5 41 -9 6 -4 14
-1 16 5 4 9 6 8 6 -2 0 -8 -4 -22 -9 -30 -9 -13 -10 -13 -10 0 0 13 -1 13 -10
0 -5 -8 -12 -11 -16 -7 -4 3 -1 13 6 22 20 24 2 18 -24 -8 l-24 -24 37 -1 c20
-1 59 -4 87 -8 l51 -6 1 61 c0 33 -3 60 -6 60 -4 -1 -20 -5 -37 -9z"/>
<path d="M895 859 l-40 -18 100 -1 100 0 -44 20 c-52 24 -64 24 -116 -1z"/>
<path d="M1880 805 c0 -24 2 -25 58 -23 l57 2 -51 3 c-46 4 -51 6 -47 23 3 11
0 20 -6 20 -6 0 -11 -11 -11 -25z"/>
<path d="M567 804 c-14 -15 -6 -34 14 -34 14 0 19 5 17 17 -3 18 -20 27 -31
17z"/>
<path d="M1310 791 c0 -15 6 -21 21 -21 25 0 22 33 -4 38 -12 2 -17 -3 -17
-17z"/>
<path d="M2424 772 c3 -6 -1 -17 -9 -25 -8 -9 -15 -23 -15 -31 0 -11 -9 -16
-29 -16 -16 0 -34 -7 -41 -15 -9 -10 -16 -12 -25 -5 -7 6 -15 6 -22 -1 -8 -8
-14 -5 -22 9 -8 15 -8 21 1 24 7 3 9 12 4 23 -6 17 -8 16 -21 -8 -11 -21 -11
-32 -2 -52 l12 -25 143 0 c88 0 142 4 142 10 0 6 -25 10 -56 10 -43 0 -54 3
-47 13 14 19 10 90 -6 95 -8 3 -11 0 -7 -6z"/>
<path d="M2473 763 c-15 -6 -18 -43 -3 -43 5 0 7 -8 4 -17 -5 -15 -4 -16 5 -3
9 13 11 13 11 -2 0 -11 8 -18 20 -18 16 0 19 7 18 45 0 31 -5 45 -14 45 -16 0
-19 -46 -4 -55 6 -3 10 -10 10 -16 0 -5 -4 -9 -10 -9 -5 0 -10 7 -10 15 0 8
-5 15 -11 15 -7 0 -9 10 -5 25 4 14 5 25 4 24 -2 0 -9 -3 -15 -6z"/>
<path d="M657 753 c-13 -12 -7 -43 8 -43 9 0 15 9 15 25 0 24 -10 32 -23 18z"/>
<path d="M700 735 c0 -14 6 -25 14 -25 9 0 12 8 8 25 -2 14 -8 25 -13 25 -5 0
-9 -11 -9 -25z"/>
<path d="M748 735 c-4 -17 -1 -25 8 -25 8 0 14 11 14 25 0 14 -4 25 -9 25 -5
0 -11 -11 -13 -25z"/>
<path d="M790 736 c0 -17 5 -26 16 -26 10 0 14 7 12 22 -5 32 -28 35 -28 4z"/>
<path d="M1096 753 c-12 -12 -6 -43 9 -43 8 0 15 9 15 19 0 21 -13 34 -24 24z"/>
<path d="M1140 735 c0 -14 6 -25 14 -25 9 0 12 8 8 25 -2 14 -8 25 -13 25 -5
0 -9 -11 -9 -25z"/>
<path d="M1188 735 c-4 -17 -1 -25 8 -25 8 0 14 11 14 25 0 14 -4 25 -9 25 -5
0 -11 -11 -13 -25z"/>
<path d="M1230 736 c0 -17 5 -26 16 -26 10 0 14 7 12 22 -5 32 -28 35 -28 4z"/>
<path d="M1973 713 c26 -2 67 -2 90 0 23 2 2 3 -48 3 -49 0 -68 -1 -42 -3z"/>
<path d="M2161 680 c10 -26 16 -30 47 -29 21 0 31 3 25 6 -7 2 -13 11 -13 19
0 8 -4 14 -10 14 -5 0 -10 -7 -10 -15 0 -24 -19 -17 -26 10 -3 14 -10 25 -15
25 -4 0 -3 -13 2 -30z"/>
<path d="M1637 606 c-50 -19 -76 -42 -98 -91 -33 -71 -15 -170 37 -217 77 -68
222 -59 282 17 68 86 41 234 -49 281 -44 22 -126 27 -172 10z m152 -90 c22
-22 26 -35 26 -82 0 -50 -3 -58 -33 -85 -22 -20 -43 -29 -67 -29 -74 0 -115
43 -115 121 0 34 6 47 35 76 33 33 39 35 81 30 32 -3 55 -13 73 -31z"/>
<path d="M490 435 l0 -175 131 0 130 0 -3 32 -3 31 -87 -2 -88 -2 0 43 0 43
80 -3 80 -4 0 36 0 36 -80 0 -80 0 0 41 0 42 85 -5 85 -4 0 33 0 33 -125 0
-125 0 0 -175z m68 -12 c-16 -20 -28 -15 -28 10 0 32 11 40 26 19 9 -12 9 -21
2 -29z"/>
<path d="M800 488 c0 -97 4 -130 18 -157 24 -48 62 -73 120 -79 60 -5 111 10
143 44 22 24 24 35 29 170 l5 144 -37 0 -38 0 0 -125 c0 -146 -9 -165 -80
-165 -71 0 -80 19 -80 165 l0 125 -40 0 -40 0 0 -122z"/>
<path d="M1190 436 l0 -176 35 0 35 0 0 60 c0 60 0 60 29 60 24 0 38 -11 76
-59 43 -54 50 -59 91 -63 24 -2 44 -2 44 0 0 2 -22 31 -50 65 -53 66 -58 77
-36 77 28 0 56 50 56 99 0 40 -5 52 -31 77 -29 28 -34 29 -140 32 l-109 4 0
-176z m196 89 c32 -44 5 -77 -70 -83 l-56 -4 0 57 0 57 56 -4 c40 -3 61 -10
70 -23z m-133 -121 c-3 -8 -9 -14 -13 -14 -14 0 -22 20 -16 37 5 12 9 13 21 3
7 -6 11 -18 8 -26z"/>
<path d="M1950 435 l0 -175 40 0 40 0 0 58 0 57 58 0 c105 1 152 39 152 122 0
83 -52 113 -195 113 l-95 0 0 -175z m195 95 c22 -18 19 -67 -4 -80 -11 -5 -40
-10 -65 -10 l-46 0 0 56 0 57 50 -5 c27 -3 56 -11 65 -18z m-127 -137 c-13
-16 -28 -7 -28 16 0 27 12 33 26 13 8 -12 9 -21 2 -29z"/>
<path d="M2290 435 l0 -175 131 0 130 0 -3 32 -3 31 -87 -2 -88 -2 0 43 0 43
80 -3 80 -4 0 36 0 36 -80 0 -80 0 0 41 0 42 85 -5 85 -4 0 33 0 33 -125 0
-125 0 0 -175z m65 0 c0 -10 -6 -20 -12 -22 -8 -3 -13 5 -13 22 0 17 5 25 13
23 6 -3 12 -13 12 -23z"/>
</g>
</svg>
