<?xml version="1.0" standalone="no"?>
<!DOCTYPE svg PUBLIC "-//W3C//DTD SVG 20010904//EN"
 "http://www.w3.org/TR/2001/REC-SVG-20010904/DTD/svg10.dtd">
<svg version="1.0" xmlns="http://www.w3.org/2000/svg"
 width="194.000000pt" height="266.000000pt" viewBox="0 0 194.000000 266.000000"
 preserveAspectRatio="xMidYMid meet">
<metadata>
Created by potrace 1.10, written by Peter Selinger 2001-2011
</metadata>
<g transform="translate(0.000000,266.000000) scale(0.100000,-0.100000)"
fill="#000000" stroke="none">
<path d="M1080 1785 l0 -545 75 0 75 0 0 545 0 545 -75 0 -75 0 0 -545z m104
509 c14 -5 15 -65 16 -509 0 -502 0 -504 -21 -510 -11 -4 -31 -4 -45 -1 l-24
6 0 504 c0 394 3 505 13 509 17 8 43 8 61 1z"/>
<path d="M820 1760 l0 -520 75 0 75 0 0 520 0 520 -75 0 -75 0 0 -520z m114
464 c3 -9 6 -219 6 -468 0 -499 0 -500 -57 -481 l-28 10 -3 465 c-1 256 0 471
3 478 7 18 72 15 79 -4z"/>
<path d="M555 1705 l0 -465 78 0 77 0 0 465 0 465 -77 0 -78 0 0 -465z m111
424 c11 -9 14 -93 14 -429 0 -413 -1 -419 -21 -425 -11 -4 -31 -4 -45 -1 l-24
6 0 424 c0 232 2 425 4 427 10 10 60 8 72 -2z"/>
<path d="M1340 1705 l0 -465 78 0 77 0 0 465 0 465 -77 0 -78 0 0 -465z m117
3 l2 -428 -26 -6 c-59 -15 -58 -27 -61 434 -2 464 -7 433 58 429 l25 -2 2
-427z"/>
<path d="M1040 715 c0 -84 2 -95 18 -95 15 0 17 11 17 95 0 84 -2 95 -17 95
-16 0 -18 -11 -18 -95z"/>
<path d="M1110 715 c0 -78 3 -95 15 -95 12 0 15 17 15 95 0 78 -3 95 -15 95
-12 0 -15 -17 -15 -95z"/>
<path d="M525 710 l0 -90 58 0 c31 0 57 4 57 10 0 6 -18 10 -40 10 -39 0 -40
1 -40 35 0 33 2 35 35 35 19 0 35 5 35 10 0 6 -16 10 -35 10 -31 0 -35 3 -35
25 0 23 4 25 40 25 22 0 40 5 40 10 0 6 -26 10 -57 10 l-58 0 0 -90z"/>
<path d="M1470 770 c0 -11 -7 -20 -15 -20 -8 0 -15 -4 -15 -10 0 -5 7 -10 16
-10 13 0 15 -7 10 -35 -9 -45 7 -75 39 -75 28 0 34 17 8 22 -12 2 -17 15 -19
46 -2 35 1 42 17 42 10 0 19 5 19 10 0 6 -9 10 -19 10 -14 0 -18 5 -14 20 4
14 0 20 -11 20 -9 0 -16 -8 -16 -20z"/>
<path d="M670 720 c23 -32 22 -39 -6 -77 -15 -21 -15 -23 0 -23 9 0 21 9 28
20 7 11 16 20 20 20 4 0 10 -9 13 -20 4 -11 15 -20 27 -20 19 0 20 1 4 23 -28
38 -29 45 -6 77 20 29 21 30 2 30 -10 0 -23 -10 -29 -22 l-10 -23 -12 23 c-6
12 -21 22 -32 22 -20 0 -20 0 1 -30z"/>
<path d="M806 734 c-21 -20 -20 -78 0 -99 10 -10 29 -15 47 -13 41 4 45 23 5
23 -32 0 -33 2 -33 40 0 38 2 40 33 43 18 2 30 8 27 13 -10 15 -62 10 -79 -7z"/>
<path d="M934 742 c-37 -24 -39 -93 -4 -112 28 -15 80 -12 80 3 0 9 -9 12 -29
9 -22 -3 -32 1 -40 17 -11 20 -9 21 34 21 49 0 56 10 29 48 -15 22 -49 29 -70
14z m54 -29 c2 -9 -7 -13 -28 -13 -28 0 -31 2 -20 15 15 18 41 16 48 -2z"/>
<path d="M1186 728 c-35 -50 -2 -112 56 -106 17 2 33 8 35 14 2 7 -6 10 -22 7
-24 -5 -55 11 -55 28 0 5 18 9 40 9 35 0 40 3 40 23 0 13 -5 28 -12 35 -20 20
-65 14 -82 -10z m68 -13 c4 -11 -2 -15 -24 -15 -29 0 -38 9 -23 23 12 12 41 7
47 -8z"/>
<path d="M1310 684 c0 -50 3 -64 15 -64 12 0 15 13 15 55 0 52 1 55 25 55 24
0 25 -3 25 -55 0 -42 3 -55 15 -55 11 0 15 13 15 54 0 63 -11 75 -68 74 l-42
0 0 -64z"/>
<path d="M1150 410 c0 -25 -4 -30 -24 -30 -35 0 -56 -26 -56 -69 0 -48 15 -61
68 -58 l42 1 0 93 c0 76 -3 93 -15 93 -10 0 -15 -10 -15 -30z m0 -96 c0 -41
-2 -45 -22 -42 -40 5 -38 88 2 88 17 0 20 -6 20 -46z"/>
<path d="M715 406 c-32 -32 -34 -92 -4 -130 17 -22 28 -26 57 -24 19 2 37 8
39 14 2 6 -8 9 -25 6 -22 -3 -33 2 -46 19 -35 51 -7 124 46 117 17 -3 27 0 25
6 -2 6 -18 12 -35 14 -23 2 -38 -4 -57 -22z"/>
<path d="M1300 400 c0 -11 -7 -20 -15 -20 -8 0 -15 -4 -15 -10 0 -5 7 -10 16
-10 13 0 15 -7 10 -35 -9 -45 7 -75 39 -75 28 0 34 17 8 22 -12 2 -17 15 -19
46 -2 35 1 42 17 42 10 0 19 5 19 10 0 6 -9 10 -19 10 -14 0 -18 5 -14 20 4
14 0 20 -11 20 -9 0 -16 -8 -16 -20z"/>
<path d="M840 314 c0 -49 3 -64 14 -64 11 0 16 15 18 53 3 45 6 52 26 55 38 6
24 21 -18 20 l-40 0 0 -64z"/>
<path d="M950 360 c-43 -43 -9 -114 52 -108 17 2 33 8 35 14 2 7 -6 10 -22 7
-24 -5 -55 11 -55 28 0 5 18 9 40 9 35 0 40 3 40 23 0 48 -53 64 -90 27z m68
-17 c2 -9 -7 -13 -27 -13 -30 0 -39 9 -24 24 11 10 46 3 51 -11z"/>
<path d="M1220 315 c0 -51 3 -65 15 -65 12 0 15 14 15 65 0 51 -3 65 -15 65
-12 0 -15 -14 -15 -65z"/>
</g>
</svg>
