<?xml version="1.0" standalone="no"?>
<!DOCTYPE svg PUBLIC "-//W3C//DTD SVG 20010904//EN"
 "http://www.w3.org/TR/2001/REC-SVG-20010904/DTD/svg10.dtd">
<svg version="1.0" xmlns="http://www.w3.org/2000/svg"
 width="203.000000pt" height="268.000000pt" viewBox="0 0 203.000000 268.000000"
 preserveAspectRatio="xMidYMid meet">
<metadata>
Created by potrace 1.10, written by Peter Selinger 2001-2011
</metadata>
<g transform="translate(0.000000,268.000000) scale(0.100000,-0.100000)"
fill="#000000" stroke="none">
<path d="M1060 1650 l0 -390 75 0 75 0 0 390 0 390 -75 0 -75 0 0 -390z m114
334 c3 -9 6 -163 6 -343 0 -344 -1 -351 -45 -351 -44 0 -45 7 -45 360 0 185 3
340 7 343 13 14 71 7 77 -9z"/>
<path d="M800 1595 l0 -335 75 0 75 0 0 335 0 335 -75 0 -75 0 0 -335z m108
293 c9 -9 12 -88 12 -294 0 -298 -2 -308 -46 -301 -44 6 -44 5 -44 301 0 296
1 306 45 306 12 0 26 -5 33 -12z"/>
<path d="M1320 1545 l0 -285 78 0 77 0 0 285 0 285 -77 0 -78 0 0 -285z m103
242 c16 -11 17 -35 15 -247 l-3 -235 -28 -10 c-52 -18 -56 0 -56 251 0 187 2
226 15 239 19 18 35 19 57 2z"/>
<path d="M538 1492 l-3 -232 78 0 77 0 0 233 0 232 -75 0 -74 0 -3 -233z m110
186 c8 -8 12 -65 12 -189 0 -185 -1 -190 -44 -196 -42 -7 -46 10 -46 192 0 96
3 180 6 189 7 19 55 21 72 4z"/>
<path d="M1384 800 c5 -28 3 -30 -24 -30 -34 0 -60 -31 -60 -72 0 -39 23 -56
72 -56 l43 1 0 94 c1 85 -1 93 -18 93 -16 0 -18 -5 -13 -30z m4 -92 c-2 -33
-8 -44 -22 -46 -21 -4 -36 13 -36 44 0 25 18 44 43 44 15 0 18 -7 15 -42z"/>
<path d="M430 730 c0 -80 2 -90 18 -90 14 0 17 7 14 40 -4 40 -4 40 32 40 20
0 36 5 36 10 0 6 -16 10 -35 10 -32 0 -35 2 -35 30 0 28 2 30 40 30 22 0 40 5
40 10 0 6 -25 10 -55 10 l-55 0 0 -90z"/>
<path d="M949 801 c-20 -16 -24 -28 -24 -71 0 -43 4 -55 24 -71 27 -22 92 -23
99 -2 2 9 -5 11 -27 7 -44 -9 -61 9 -61 66 0 57 17 75 61 66 22 -4 29 -2 27 7
-7 21 -72 20 -99 -2z"/>
<path d="M1530 790 c0 -11 -7 -20 -15 -20 -8 0 -15 -4 -15 -10 0 -5 7 -10 16
-10 13 0 15 -7 11 -36 -8 -47 7 -74 38 -74 28 0 34 17 8 22 -12 2 -17 15 -19
46 -2 35 1 42 17 42 10 0 19 5 19 10 0 6 -9 10 -19 10 -14 0 -18 5 -14 20 4
14 0 20 -11 20 -9 0 -16 -8 -16 -20z"/>
<path d="M567 763 c-15 -14 -5 -20 29 -19 22 1 39 -4 41 -11 3 -8 -5 -13 -20
-13 -43 0 -57 -10 -57 -41 0 -30 11 -36 76 -37 l32 -1 -4 56 c-2 31 -10 60
-16 65 -16 9 -72 11 -81 1z m71 -80 c-2 -10 -13 -19 -26 -21 -17 -3 -22 2 -22
17 0 16 6 21 26 21 19 0 25 -5 22 -17z"/>
<path d="M700 705 c0 -51 3 -65 15 -65 12 0 15 14 15 65 0 51 -3 65 -15 65
-12 0 -15 -14 -15 -65z"/>
<path d="M765 704 c0 -54 3 -64 18 -64 14 0 17 9 17 55 0 48 2 55 20 55 11 0
20 4 20 9 0 4 -17 8 -37 8 l-38 0 0 -63z"/>
<path d="M1070 704 c0 -54 3 -64 18 -64 14 0 17 9 17 52 0 47 2 53 23 56 38 6
24 21 -18 20 l-40 0 0 -64z"/>
<path d="M1194 762 c-37 -24 -39 -93 -4 -112 28 -15 80 -12 80 3 0 9 -9 12
-29 9 -22 -3 -32 1 -40 17 -11 20 -9 21 34 21 49 0 56 10 29 48 -15 22 -49 29
-70 14z m54 -29 c2 -9 -7 -13 -28 -13 -28 0 -31 2 -20 15 15 18 41 16 48 -2z"/>
<path d="M1450 705 c0 -51 3 -65 15 -65 12 0 15 14 15 65 0 51 -3 65 -15 65
-12 0 -15 -14 -15 -65z"/>
</g>
</svg>
