<?xml version="1.0" standalone="no"?>
<!DOCTYPE svg PUBLIC "-//W3C//DTD SVG 20010904//EN"
 "http://www.w3.org/TR/2001/REC-SVG-20010904/DTD/svg10.dtd">
<svg version="1.0" xmlns="http://www.w3.org/2000/svg"
 width="210.000000pt" height="267.000000pt" viewBox="0 0 210.000000 267.000000"
 preserveAspectRatio="xMidYMid meet">
<metadata>
Created by potrace 1.10, written by Peter Selinger 2001-2011
</metadata>
<g transform="translate(0.000000,267.000000) scale(0.100000,-0.100000)"
fill="#000000" stroke="none">
<path d="M1380 1718 l0 -468 78 0 77 0 -3 467 -2 468 -75 0 -75 0 0 -467z
m118 0 l2 -428 -22 -5 c-13 -3 -32 -3 -43 -2 -20 4 -20 13 -23 423 -1 230 0
424 2 430 2 6 22 11 43 10 l38 -1 3 -427z"/>
<path d="M860 1640 l0 -390 75 0 75 0 0 390 0 390 -75 0 -75 0 0 -390z m118 6
c1 -216 -1 -343 -8 -350 -13 -13 -52 -16 -67 -4 -10 8 -13 88 -13 338 0 181 3
336 6 345 5 12 17 15 43 13 l36 -3 3 -339z"/>
<path d="M1120 1640 l0 -390 75 0 75 0 0 390 0 390 -75 0 -75 0 0 -390z m114
334 c8 -20 8 -658 0 -678 -10 -26 -63 -21 -73 8 -15 37 -14 655 0 672 16 19
65 18 73 -2z"/>
<path d="M595 1560 l0 -310 78 0 77 0 0 310 0 310 -77 0 -78 0 0 -310z m109
264 c14 -13 16 -52 16 -268 0 -279 -2 -287 -57 -269 l-28 10 -3 252 c-1 162 1
259 8 271 13 24 43 26 64 4z"/>
<path d="M934 790 c5 -28 3 -30 -24 -30 -34 0 -60 -31 -60 -72 0 -39 23 -56
75 -56 l45 1 -1 94 c0 87 -2 93 -21 93 -17 0 -20 -4 -14 -30z m3 -92 c-1 -33
-6 -44 -21 -46 -21 -4 -36 13 -36 44 0 25 18 44 42 44 15 0 17 -7 15 -42z"/>
<path d="M1524 790 c5 -28 3 -30 -24 -30 -34 0 -60 -31 -60 -72 0 -39 23 -56
72 -56 l43 1 0 94 c1 85 -1 93 -18 93 -16 0 -19 -5 -13 -30z m4 -92 c-2 -33
-8 -44 -22 -46 -21 -4 -36 13 -36 44 0 25 18 44 43 44 15 0 18 -7 15 -42z"/>
<path d="M437 790 c-23 -18 -27 -29 -27 -70 0 -41 4 -52 26 -69 27 -21 58 -26
88 -15 11 4 16 19 16 50 0 40 -2 44 -25 44 -14 0 -25 -4 -25 -10 0 -5 5 -10
10 -10 6 0 10 -13 10 -30 0 -23 -5 -30 -19 -30 -44 0 -66 75 -35 119 14 19 23
22 51 18 24 -4 33 -2 30 6 -7 22 -71 20 -100 -3z"/>
<path d="M1081 784 c-13 -16 -21 -41 -21 -64 0 -55 32 -92 78 -88 19 2 37 8
39 14 2 6 -8 9 -25 6 -53 -7 -81 66 -46 117 13 17 24 22 46 19 17 -3 27 0 25
6 -2 6 -20 12 -39 14 -29 2 -40 -2 -57 -24z"/>
<path d="M1670 780 c0 -11 -7 -20 -15 -20 -8 0 -15 -4 -15 -10 0 -5 7 -10 16
-10 13 0 15 -7 10 -35 -9 -45 7 -75 39 -75 28 0 34 17 8 22 -12 2 -17 15 -19
46 -2 35 1 42 17 42 10 0 19 5 19 10 0 6 -9 10 -19 10 -14 0 -18 5 -14 20 4
14 0 20 -11 20 -9 0 -16 -8 -16 -20z"/>
<path d="M588 749 c-12 -7 -18 -22 -18 -49 0 -60 40 -87 91 -60 14 8 19 21 19
55 0 34 -5 47 -19 55 -25 13 -51 12 -73 -1z m57 -54 c0 -33 -3 -40 -20 -40
-15 0 -21 8 -23 28 -5 39 5 59 25 55 14 -2 18 -13 18 -43z"/>
<path d="M727 742 c-22 -25 -21 -75 1 -95 40 -36 102 -7 102 48 0 56 -67 86
-103 47z m69 -26 c8 -35 -4 -66 -26 -66 -22 0 -34 31 -26 66 4 15 14 24 26 24
12 0 22 -9 26 -24z"/>
<path d="M1210 694 c0 -54 3 -64 18 -64 14 0 17 9 17 52 0 47 2 53 23 56 37 6
25 19 -18 19 l-40 0 0 -63z"/>
<path d="M1334 752 c-37 -24 -39 -93 -4 -112 28 -15 80 -12 80 3 0 9 -9 12
-29 9 -22 -3 -32 1 -40 17 -11 20 -9 21 34 21 49 0 56 10 29 48 -15 22 -49 29
-70 14z m54 -29 c2 -9 -7 -13 -28 -13 -28 0 -31 2 -20 15 15 18 41 16 48 -2z"/>
<path d="M1590 695 c0 -51 3 -65 15 -65 12 0 15 14 15 65 0 51 -3 65 -15 65
-12 0 -15 -14 -15 -65z"/>
</g>
</svg>
