<?xml version="1.0" standalone="no"?>
<!DOCTYPE svg PUBLIC "-//W3C//DTD SVG 20010904//EN"
 "http://www.w3.org/TR/2001/REC-SVG-20010904/DTD/svg10.dtd">
<svg version="1.0" xmlns="http://www.w3.org/2000/svg"
 width="300.000000pt" height="322.000000pt" viewBox="0 0 300.000000 322.000000"
 preserveAspectRatio="xMidYMid meet">
<metadata>
Created by potrace 1.10, written by Peter Selinger 2001-2011
</metadata>
<g transform="translate(0.000000,322.000000) scale(0.100000,-0.100000)"
fill="#000000" stroke="none">
<path d="M1467 3050 c-3 -25 -6 -79 -6 -121 0 -42 -7 -132 -15 -200 -22 -174
-51 -279 -77 -279 -6 0 -9 -6 -6 -14 8 -19 -59 -142 -81 -151 -12 -5 -28 6
-57 40 l-40 46 -42 -36 c-28 -23 -43 -31 -46 -23 -4 10 -7 10 -14 0 -17 -23
-52 -22 -68 1 -8 12 -19 22 -23 22 -4 1 -23 11 -42 23 -19 12 -46 22 -59 22
-13 0 -40 14 -61 30 l-39 31 16 -31 c8 -17 21 -34 29 -37 10 -4 11 -10 3 -25
-6 -11 -7 -31 -3 -46 4 -15 8 -30 8 -34 1 -3 4 -10 8 -14 5 -4 8 -14 8 -22 0
-9 8 -24 17 -34 24 -27 24 -47 2 -59 -11 -5 -16 -15 -13 -21 4 -7 -9 -25 -31
-44 l-38 -32 38 -46 c21 -26 35 -49 32 -52 -5 -6 -29 1 -79 21 -13 5 -18 2
-18 -8 0 -9 16 -21 35 -28 19 -7 35 -17 35 -21 0 -12 -15 -10 -60 8 -23 9 -42
15 -44 13 -2 -2 -7 -18 -10 -34 -6 -29 -4 -32 31 -44 21 -8 43 -16 49 -18 6
-2 14 3 18 12 3 9 2 14 -2 11 -11 -7 -72 21 -72 34 0 6 14 4 37 -5 35 -15 38
-15 50 2 7 10 22 28 34 40 11 12 21 35 23 50 1 15 8 27 14 26 7 -2 12 5 12 16
0 18 17 38 32 40 11 1 51 35 128 107 80 76 135 105 181 98 35 -6 53 4 117 68
57 56 121 64 171 22 17 -14 31 -30 31 -34 0 -5 -24 -6 -54 -3 -62 6 -146 -4
-146 -18 0 -12 187 -12 195 1 9 15 55 12 55 -4 0 -15 45 -30 61 -21 5 4 24 -3
42 -14 17 -11 36 -19 40 -19 17 0 73 -27 102 -49 17 -13 41 -32 53 -41 13 -9
35 -28 48 -41 13 -13 24 -20 24 -15 0 5 8 -4 19 -21 10 -16 30 -43 45 -58 14
-15 26 -32 26 -38 0 -5 5 -9 10 -9 6 0 10 -9 10 -19 0 -11 5 -23 10 -26 6 -3
10 -1 10 5 0 7 16 30 35 53 19 22 35 44 35 48 0 4 -23 22 -51 40 -28 18 -56
37 -62 43 -7 6 -23 17 -37 24 -14 7 -41 28 -60 46 -34 31 -80 52 -80 36 0 -4
13 -13 29 -18 19 -7 31 -18 33 -34 2 -17 9 -22 24 -21 14 2 24 -4 27 -17 9
-35 -10 -31 -55 10 -55 53 -176 121 -255 146 -60 18 -64 22 -93 75 -16 31 -30
64 -30 74 0 9 -6 15 -12 12 -7 -2 -12 -12 -12 -21 2 -14 -11 -16 -90 -16 -85
0 -92 1 -92 20 0 15 7 20 28 20 24 0 27 4 34 45 5 39 10 45 30 45 18 0 25 -7
30 -27 13 -59 15 -63 40 -63 28 0 28 -3 8 51 -18 51 -20 60 -39 199 -9 58 -17
152 -19 210 -1 58 -6 112 -9 120 -3 8 -8 26 -9 40 -3 18 -6 12 -11 -20z m17
-412 c5 -24 3 -28 -15 -28 -17 0 -19 3 -10 14 6 8 11 18 10 22 -6 36 6 29 15
-8z m31 -48 c4 -6 -12 -10 -40 -10 -28 0 -44 4 -40 10 3 6 21 10 40 10 19 0
37 -4 40 -10z m-554 -278 c-8 -16 -5 -24 16 -43 l27 -24 -16 25 c-12 20 -13
28 -3 37 10 9 17 8 29 -6 24 -26 19 -37 -5 -15 -22 19 -22 19 -10 -5 10 -17
10 -26 1 -35 -9 -8 -18 -4 -36 18 -14 15 -28 26 -31 22 -3 -3 6 -15 20 -27 15
-11 27 -28 27 -36 0 -13 6 -12 28 8 15 13 22 18 15 10 -9 -10 -6 -18 15 -36
15 -13 23 -27 19 -31 -4 -5 -18 4 -30 19 l-22 27 -35 -30 c-21 -18 -29 -30
-20 -30 16 0 45 -38 36 -48 -3 -3 -15 7 -27 22 -11 14 -26 23 -32 20 -7 -4 1
7 17 24 17 18 25 32 18 32 -6 0 -14 -5 -17 -11 -5 -7 -14 -4 -26 7 -21 19 -26
6 -6 -16 6 -8 2 -6 -11 5 -13 11 -19 21 -13 23 18 6 13 19 -9 25 -11 3 -20 10
-20 16 0 16 39 53 50 46 5 -3 12 4 15 15 5 17 9 19 21 9 12 -10 13 -9 8 7 -5
15 -4 16 5 8 10 -9 10 -17 2 -32z m199 -16 c0 -8 7 -17 16 -20 8 -3 12 -11 8
-17 -5 -8 -13 -4 -25 12 -21 27 -24 39 -9 39 6 0 10 -6 10 -14z m-23 -62 c-10
-10 -47 26 -47 45 0 11 7 8 27 -11 15 -15 24 -31 20 -34z m-32 -22 c-8 -8 -45
40 -38 51 2 4 14 -4 25 -18 11 -14 17 -29 13 -33z m-31 6 c9 -12 13 -24 11
-27 -6 -5 -45 29 -45 41 0 15 19 8 34 -14z m-69 -58 c10 -11 15 -23 12 -27 -8
-7 -47 25 -47 39 0 14 16 9 35 -12z m-50 -40 c10 -11 15 -23 12 -27 -8 -7 -47
25 -47 39 0 14 16 9 35 -12z m-17 -31 c20 -25 21 -28 5 -23 -19 7 -43 32 -43
46 0 16 15 7 38 -23z m1142 7 c0 -8 -5 -18 -10 -21 -7 -4 -6 -13 1 -27 11 -20
11 -20 32 3 20 21 22 21 25 6 2 -10 -2 -25 -9 -33 -19 -23 -2 -29 23 -8 12 10
18 13 14 6 -4 -6 -13 -23 -20 -37 l-13 -25 -34 48 c-18 26 -37 49 -41 50 -5 2
-13 13 -19 24 -6 11 -7 18 -2 15 5 -3 15 -2 23 4 21 13 30 11 30 -5z m-1185
-42 c17 -26 15 -41 -4 -29 -6 3 -9 11 -6 16 4 5 -1 9 -9 9 -9 0 -16 7 -16 15
0 23 16 18 35 -11z"/>
<path d="M908 2281 c5 -14 3 -14 -11 -2 -15 12 -15 11 -2 -17 9 -16 23 -36 32
-43 14 -12 14 -10 -1 14 -22 33 -12 36 15 5 10 -13 18 -18 19 -12 0 6 -9 19
-20 29 -12 10 -19 24 -16 30 2 7 -2 12 -9 12 -8 0 -11 -7 -7 -16z"/>
<path d="M1054 2966 c14 -19 26 -39 26 -45 0 -15 -53 -14 -68 1 -6 6 -15 9
-19 5 -4 -4 -1 -13 5 -19 7 -7 12 -27 12 -45 0 -39 12 -43 28 -8 6 14 18 25
27 25 8 0 23 9 32 19 9 11 21 18 25 15 5 -3 2 -11 -7 -18 -19 -14 -37 -93 -24
-102 8 -5 49 76 49 96 0 5 16 12 36 16 33 6 54 27 40 41 -3 4 -22 2 -41 -4
-32 -10 -38 -8 -77 23 -57 45 -79 45 -44 0z"/>
<path d="M1986 2559 c-18 -18 -26 -34 -22 -44 10 -26 40 -13 50 23 5 17 13 32
17 32 5 0 9 5 9 10 0 18 -25 9 -54 -21z"/>
<path d="M1132 2568 c5 -15 48 -18 48 -3 0 6 -11 11 -26 13 -18 3 -25 0 -22
-10z"/>
<path d="M1693 2564 c-27 -11 -11 -24 28 -24 28 0 39 4 37 13 -5 13 -44 19
-65 11z"/>
<path d="M1212 2534 c-20 -22 -5 -34 43 -34 50 0 66 15 39 35 -25 19 -66 18
-82 -1z"/>
<path d="M1841 2494 c-12 -15 -21 -31 -21 -36 0 -5 -11 -26 -25 -46 -17 -25
-22 -39 -14 -47 7 -7 13 -5 19 4 4 8 16 16 26 17 9 2 21 8 25 16 4 7 11 9 16
5 4 -4 1 -17 -6 -29 -7 -11 -8 -17 -2 -13 6 3 14 -1 17 -9 7 -18 34 -22 34 -6
0 6 5 10 11 10 6 0 9 -6 7 -12 -6 -16 37 -62 50 -54 5 3 10 17 10 31 0 20 -3
23 -19 15 -24 -14 -29 -13 -23 5 4 8 12 15 20 15 7 0 21 11 29 24 13 20 14 32
5 65 -6 23 -17 41 -25 41 -11 0 -12 -7 -4 -32 13 -45 12 -52 -11 -77 l-19 -23
-46 37 c-44 36 -46 37 -60 19 -12 -16 -14 -17 -15 -3 0 9 7 19 15 23 8 3 15
12 15 19 0 25 28 39 93 46 4 1 7 6 7 11 0 6 -20 10 -44 10 -36 0 -48 -5 -65
-26z"/>
<path d="M2178 2501 c-7 -12 -23 -21 -35 -21 -26 0 -51 -36 -30 -43 6 -2 21 3
32 11 19 16 19 16 3 -3 -16 -17 -16 -19 0 -32 16 -13 15 -14 -5 -10 -17 4 -30
-8 -68 -60 -26 -36 -43 -69 -38 -74 11 -11 31 7 87 79 27 34 53 62 58 62 5 0
8 12 7 28 -1 15 1 37 5 50 10 31 1 39 -16 13z"/>
<path d="M1456 2441 c-7 -10 33 -23 46 -15 5 3 6 10 3 15 -8 12 -42 12 -49 0z"/>
<path d="M2051 2373 c-40 -55 -49 -74 -33 -72 12 1 101 116 95 123 -13 13 -23
4 -62 -51z"/>
<path d="M1716 2345 c-33 -43 -27 -59 9 -25 27 25 47 21 25 -5 -7 -9 -10 -19
-6 -23 4 -4 12 1 17 11 6 9 17 17 24 17 17 0 19 -9 5 -30 -6 -9 -5 -17 3 -22
19 -12 27 -9 21 6 -4 11 0 13 15 9 12 -3 21 -1 21 6 0 6 -6 11 -13 11 -7 0
-19 9 -27 20 -8 11 -18 20 -23 20 -5 0 -16 9 -26 21 l-17 21 -28 -37z"/>
<path d="M2273 2335 c-27 -30 -38 -35 -76 -35 -49 0 -83 -26 -75 -58 3 -12 0
-19 -9 -19 -10 0 -13 8 -11 22 4 20 2 21 -24 11 -32 -12 -32 -26 0 -41 12 -5
22 -13 22 -18 0 -12 33 22 45 47 7 15 22 22 50 24 22 2 45 8 51 13 6 5 18 7
26 4 11 -4 22 7 37 35 25 48 25 50 8 50 -7 0 -27 -16 -44 -35z"/>
<path d="M577 2340 c-17 -14 -23 -26 -20 -40 9 -34 21 -32 47 6 36 53 21 72
-27 34z"/>
<path d="M1916 2283 c-4 -9 0 -23 8 -31 12 -12 16 -11 26 8 10 18 9 24 -1 31
-20 13 -26 11 -33 -8z"/>
<path d="M2416 2271 c-14 -5 -16 -10 -8 -15 17 -10 15 -26 -3 -20 -8 4 -15 1
-15 -5 0 -6 6 -11 14 -11 7 0 21 -10 29 -22 l16 -23 0 27 c1 15 6 30 11 33 6
3 10 11 10 17 0 7 -4 7 -13 -1 -8 -6 -17 -8 -20 -4 -4 3 -2 12 4 20 13 14 4
16 -25 4z"/>
<path d="M2261 2235 c11 -39 -2 -75 -27 -75 -8 0 -14 -7 -12 -16 2 -10 -3 -19
-11 -22 -9 -3 -11 1 -7 15 5 15 -2 27 -26 45 -29 22 -35 23 -47 11 -7 -8 -10
-17 -6 -21 3 -3 10 0 15 8 7 11 12 12 20 4 9 -9 9 -14 1 -19 -8 -4 -5 -15 8
-34 14 -20 17 -31 9 -39 -5 -5 -7 -15 -3 -22 9 -14 124 98 125 121 0 29 -22
79 -35 79 -10 0 -11 -8 -4 -35z"/>
<path d="M1410 2253 c-39 -5 -144 -34 -155 -43 -5 -4 -25 -11 -42 -15 -18 -3
-33 -10 -33 -14 0 -4 -16 -15 -35 -24 -20 -9 -38 -23 -41 -31 -3 -9 -13 -12
-22 -9 -9 4 -14 3 -11 -1 4 -4 -20 -34 -52 -67 -33 -33 -59 -64 -59 -70 0 -6
-4 -7 -10 -4 -5 3 -10 0 -10 -8 0 -8 -7 -20 -15 -27 -8 -7 -15 -21 -15 -31 0
-11 -5 -19 -11 -19 -6 0 -9 -6 -6 -14 3 -7 0 -22 -7 -32 -6 -11 -17 -35 -23
-54 -13 -38 -35 -239 -27 -251 2 -4 7 -34 10 -66 4 -32 10 -62 15 -68 5 -5 9
-19 9 -32 0 -13 5 -23 10 -23 6 0 10 -9 10 -20 0 -11 3 -20 8 -20 4 0 18 -23
32 -51 13 -28 30 -53 37 -56 7 -3 13 -11 13 -19 0 -8 3 -14 8 -14 4 0 35 -26
69 -59 34 -32 93 -73 130 -92 37 -19 71 -38 74 -42 3 -4 10 -7 15 -5 5 1 19
-4 32 -11 13 -7 30 -10 37 -7 8 3 17 1 20 -4 3 -4 39 -11 80 -15 80 -8 190 6
238 31 16 8 37 14 48 14 10 0 19 4 19 10 0 5 3 9 8 8 10 -4 114 58 144 85 13
13 30 21 36 19 7 -2 12 1 12 8 0 6 10 21 23 33 28 28 77 93 77 104 0 4 11 21
25 37 14 16 25 37 25 48 0 10 4 18 10 18 5 0 9 3 8 8 0 4 1 14 4 22 27 75 33
116 32 234 -1 70 -6 131 -10 135 -5 3 -10 11 -11 17 -1 6 -4 23 -7 37 -6 35
-36 98 -58 121 -10 11 -18 24 -18 28 0 10 2 7 -72 95 -29 35 -58 63 -64 63 -6
0 -17 6 -23 14 -11 13 -52 37 -143 83 -15 8 -36 16 -47 18 -12 3 -30 7 -41 9
-11 3 -24 7 -29 10 -10 7 -186 14 -221 9z m288 -66 c297 -104 472 -415 407
-720 -25 -118 -77 -211 -169 -302 -133 -132 -259 -185 -442 -185 -177 0 -309
55 -434 179 -197 196 -242 466 -120 718 71 145 213 265 375 316 76 24 91 26
205 23 82 -2 121 -8 178 -29z"/>
<path d="M580 2225 c-7 -9 -15 -13 -18 -11 -8 9 -42 -14 -42 -28 0 -7 -11 -25
-25 -40 -29 -31 -31 -43 -9 -67 13 -14 13 -21 2 -40 -7 -13 -20 -29 -28 -35
-21 -17 -2 -89 24 -89 27 0 160 280 145 307 -12 22 -32 23 -49 3z m-6 -83 c-9
-20 -18 -45 -21 -54 -7 -22 -29 -23 -37 -2 -7 18 7 49 37 81 28 32 40 18 21
-25z"/>
<path d="M2030 2205 c-10 -12 -10 -18 0 -30 12 -14 15 -14 31 1 14 13 16 20 8
31 -15 17 -24 17 -39 -2z"/>
<path d="M2605 2089 c-34 -15 -41 -16 -48 -3 -9 16 -26 10 -23 -9 1 -6 10 -27
20 -46 10 -18 16 -42 13 -52 -3 -12 -1 -17 6 -12 6 4 8 0 4 -9 -3 -9 0 -21 6
-28 10 -10 8 -11 -8 -6 -14 5 -17 4 -9 -4 13 -13 44 -3 44 16 0 8 18 19 43 26
l43 11 -22 64 c-12 35 -23 65 -25 67 -2 2 -22 -5 -44 -15z m20 -29 c3 -5 -6
-15 -20 -22 -22 -10 -28 -9 -35 2 -6 9 -4 17 3 22 17 11 45 10 52 -2z m15 -74
c0 -13 -20 -26 -41 -26 -14 0 -11 28 4 33 23 10 37 7 37 -7z"/>
<path d="M2490 2072 c-17 -8 -25 -32 -11 -32 9 0 48 -129 43 -144 -2 -5 4 -6
13 -2 9 3 19 6 21 6 3 0 2 6 -3 13 -4 6 -8 17 -10 22 -1 6 -11 34 -22 63 -25
68 -25 63 -9 73 15 10 0 11 -22 1z"/>
<path d="M2420 2049 c-8 -5 -27 -13 -42 -19 l-28 -9 21 -36 c12 -19 18 -35 15
-35 -4 0 -2 -9 4 -21 7 -11 14 -33 16 -47 6 -33 9 -36 28 -29 14 5 13 11 -5
42 -12 19 -18 35 -15 35 4 0 2 8 -3 18 -5 9 -11 32 -14 50 -4 27 -3 32 10 28
8 -3 17 -6 19 -6 3 0 2 -4 -1 -10 -3 -5 -2 -10 4 -10 5 0 8 -9 6 -20 -2 -11 1
-20 6 -20 6 0 7 -4 4 -10 -3 -5 -2 -10 4 -10 5 0 8 -9 6 -20 -2 -11 1 -20 7
-20 5 0 8 -7 4 -15 -4 -10 1 -15 15 -15 16 0 19 4 15 16 -4 9 -18 51 -32 93
-14 42 -26 76 -27 77 -1 1 -9 -2 -17 -7z"/>
<path d="M2301 2001 c-9 -6 -10 -11 -2 -15 6 -4 9 -12 6 -17 -4 -5 -1 -9 5 -9
6 0 8 -4 5 -10 -3 -5 -1 -10 5 -10 6 0 8 -4 5 -10 -3 -5 -2 -10 4 -10 5 0 8
-9 6 -20 -2 -11 0 -20 5 -20 5 0 7 -9 5 -20 -4 -19 19 -39 31 -28 5 6 -49 178
-56 178 -3 0 -11 -4 -19 -9z"/>
<path d="M2247 1983 c-4 -3 -2 -12 4 -20 6 -7 9 -13 5 -13 -4 0 0 -13 9 -30 9
-16 13 -30 10 -30 -3 0 1 -13 10 -30 8 -16 15 -33 15 -37 0 -5 5 -8 10 -7 32
3 34 5 16 19 -11 8 -16 21 -13 30 4 8 2 15 -4 15 -6 0 -7 5 -4 10 3 6 1 10 -5
10 -6 0 -8 5 -5 10 3 6 2 10 -3 10 -5 0 -9 6 -9 13 0 6 -4 21 -9 31 -5 15 -4
17 6 11 9 -5 11 -4 6 3 -8 13 -29 16 -39 5z"/>
<path d="M2170 1938 l-35 -30 30 6 c27 6 28 5 13 -7 -24 -19 -23 -31 2 -24 11
3 20 1 20 -4 0 -5 -7 -9 -15 -9 -8 0 -15 -5 -15 -11 0 -6 9 -9 20 -6 11 3 20
1 20 -4 0 -5 -7 -9 -15 -9 -8 0 -15 -4 -15 -10 0 -5 10 -10 22 -10 21 0 21 -1
3 -14 -17 -12 -15 -14 26 -14 24 0 38 2 31 5 -6 3 -10 9 -6 14 3 5 -2 9 -12 9
-13 0 -14 3 -4 15 10 12 9 15 -5 15 -14 0 -15 3 -5 15 12 14 7 20 -14 16 -5
-1 -4 4 3 13 8 10 9 16 1 21 -6 3 -9 9 -6 13 2 4 1 14 -3 24 -5 14 -11 12 -41
-14z"/>
<path d="M2644 1869 c-8 -13 -6 -100 2 -108 9 -9 32 25 38 55 5 23 2 35 -13
48 -15 13 -21 14 -27 5z"/>
<path d="M716 1833 c-12 -29 -6 -41 27 -53 17 -6 40 -16 50 -21 14 -8 17 -4
17 24 0 30 -4 34 -44 49 -39 15 -45 15 -50 1z m53 -24 c26 -9 44 -29 26 -29
-10 0 -65 30 -65 35 0 7 3 6 39 -6z"/>
<path d="M380 1764 c-19 -9 -48 -17 -65 -19 -62 -7 -115 -18 -115 -24 0 -4 33
-18 73 -31 39 -13 87 -32 105 -43 26 -15 56 -20 140 -23 59 -1 142 -6 185 -9
l77 -7 0 -40 c0 -23 -4 -37 -10 -33 -5 3 -23 -1 -39 -10 -46 -23 -56 -19 -74
33 -9 26 -14 35 -12 20 6 -34 -8 -37 -22 -5 -8 18 -10 15 -9 -23 1 -55 -29
-103 -74 -116 -17 -5 -31 -13 -30 -18 1 -5 -4 -13 -12 -17 -13 -9 -6 -11 46
-13 15 -1 28 -22 53 -86 46 -118 47 -120 30 -120 -8 0 -21 -10 -30 -23 -15
-23 -14 -23 27 -22 24 1 48 5 55 9 19 12 79 -13 105 -45 28 -33 42 -38 26 -10
-12 24 -13 31 -1 31 5 0 11 -10 14 -22 4 -12 9 -19 12 -16 3 3 -1 23 -9 43
-21 50 -21 54 14 66 43 15 37 31 -10 27 -42 -3 -56 13 -19 22 12 3 25 12 27
19 3 10 -2 12 -19 8 -21 -5 -29 1 -51 36 -14 23 -29 63 -33 88 -7 45 -6 47 23
57 l29 10 17 -60 c21 -76 69 -171 113 -226 29 -35 33 -45 23 -57 -8 -10 -17
-12 -24 -6 -6 5 -21 12 -33 15 -30 10 -30 -7 2 -69 28 -56 24 -72 -11 -49 -22
15 -24 15 -24 -1 0 -23 89 -105 113 -105 18 0 18 2 4 24 -9 13 -14 26 -11 29
3 2 30 -6 62 -19 31 -12 58 -21 60 -19 3 2 -1 18 -7 36 -17 48 1 64 42 38 46
-28 69 -24 32 6 -16 14 -43 25 -58 25 -35 0 -127 83 -127 114 0 25 -24 63 -56
88 -13 11 -33 55 -54 120 -17 57 -40 110 -49 119 -14 15 -20 15 -56 1 -22 -8
-44 -18 -49 -23 -9 -8 50 -176 65 -185 18 -11 7 -22 -38 -39 -27 -10 -54 -22
-61 -28 -9 -7 -11 -6 -7 5 4 9 -10 55 -29 104 -20 48 -36 92 -36 96 0 5 20 17
45 28 25 11 45 24 45 30 0 12 2 12 -38 1 -37 -11 -38 -11 -14 29 17 26 21 28
37 16 20 -14 68 -7 89 14 15 15 26 12 27 -7 1 -12 4 -10 9 7 12 36 12 100 0
100 -5 0 -13 12 -16 26 -4 17 -9 22 -14 14 -4 -7 -12 -10 -17 -7 -6 4 -47 7
-92 8 -45 1 -84 5 -87 10 -3 5 -10 7 -15 4 -17 -11 -9 25 10 44 16 16 30 18
87 14 94 -6 114 -11 114 -28 0 -8 5 -15 10 -15 6 0 10 6 10 13 0 6 3 21 6 33
5 20 0 21 -143 33 -81 6 -166 14 -188 16 -25 3 -54 -1 -75 -11z m110 -19 c36
-19 42 -68 11 -85 -26 -13 -68 -13 -77 1 -4 8 -9 7 -15 -2 -11 -17 -10 34 0
71 l7 25 18 -27 c10 -15 15 -32 11 -37 -3 -7 0 -8 9 -5 21 8 20 17 -4 39 -16
14 -17 20 -8 27 17 10 14 10 48 -7z m298 -566 c-2 -3 3 -14 11 -23 20 -23 -1
-45 -24 -26 -13 11 -13 15 -3 21 7 5 -4 6 -24 2 -47 -7 -49 3 -5 22 31 14 52
15 45 4z m218 -124 c36 -30 42 -39 35 -58 -6 -17 -16 -22 -45 -22 -20 -1 -41
-6 -48 -13 -7 -7 -18 -12 -25 -12 -11 0 -11 5 -3 21 7 12 9 37 5 59 -5 31 -3
40 12 49 24 14 21 15 69 -24z"/>
<path d="M2180 1774 c0 -16 27 -37 39 -30 17 11 26 -18 27 -86 0 -58 -2 -68
-17 -68 -18 0 -21 30 -4 42 6 5 6 8 -1 8 -6 0 -11 11 -11 25 0 14 4 25 9 25 5
0 6 5 3 11 -5 6 -12 3 -21 -10 -11 -16 -13 -37 -8 -93 11 -115 8 -158 -15
-182 -11 -11 -21 -25 -22 -31 -2 -10 -4 -17 -19 -65 -4 -14 -8 -36 -8 -49 -1
-13 -12 -40 -26 -61 l-24 -37 62 -62 c34 -33 68 -61 76 -61 9 0 21 -9 28 -20
7 -11 20 -20 29 -20 14 0 13 4 -5 23 -12 13 -22 35 -22 49 0 15 -12 41 -27 58
-21 26 -24 36 -15 50 9 14 4 24 -28 55 -30 30 -37 42 -29 52 16 18 54 16 70
-4 12 -15 12 -16 -6 -11 -11 3 -29 9 -40 13 -47 17 21 -23 85 -51 53 -23 80
-28 149 -28 51 -1 86 3 88 10 2 6 -16 30 -39 53 -48 48 -162 107 -225 117 -54
8 -56 24 -3 24 22 0 40 5 40 10 0 6 8 10 18 10 18 1 63 30 45 30 -6 0 -10 8
-8 18 2 9 4 27 4 40 1 12 7 22 15 22 10 0 13 -11 11 -41 -3 -35 -1 -40 13 -34
9 4 24 9 33 12 10 3 19 19 22 38 7 41 -3 115 -14 115 -5 0 -9 12 -9 26 0 14
-9 39 -20 54 -18 25 -27 29 -102 35 -46 4 -86 12 -90 19 -6 8 -8 8 -8 0z m141
-50 c10 -13 10 -17 -1 -24 -15 -9 -30 4 -30 28 0 17 15 15 31 -4z m25 -61 c3
-16 7 -34 10 -40 2 -7 -2 -13 -9 -13 -7 0 -8 -3 -2 -8 17 -12 17 -42 0 -42 -8
0 -15 6 -16 13 0 6 -2 20 -4 30 -2 9 2 17 8 17 9 0 9 2 1 8 -6 4 -14 19 -18
35 -5 20 -3 27 9 27 8 0 17 -12 21 -27z m-48 0 c-2 -10 -7 -21 -13 -25 -6 -5
-5 -8 3 -8 6 0 12 -4 12 -10 0 -5 -7 -10 -16 -10 -12 0 -15 7 -12 25 3 14 1
25 -4 25 -5 0 -6 5 -3 10 11 17 36 11 33 -7z m-51 -133 c1 -11 -4 -20 -11 -20
-8 0 -16 9 -19 20 -4 14 0 20 12 20 10 0 17 -8 18 -20z m59 0 c0 -12 -7 -20
-16 -20 -9 0 -16 9 -17 20 -1 13 4 20 15 20 11 0 18 -8 18 -20z m-54 -65 c-3
-21 -10 -35 -18 -35 -9 0 -14 12 -14 35 0 27 4 35 18 35 15 0 17 -6 14 -35z
m50 10 c-2 -14 -11 -25 -18 -25 -8 0 -14 10 -14 25 0 18 5 25 19 25 14 0 17
-6 13 -25z m-53 -107 c11 -10 13 -10 7 0 -9 15 -6 15 33 -1 l32 -13 -64 -12
c-95 -18 -99 -17 -85 13 12 28 54 34 77 13z m150 -55 c21 -18 20 -18 -40 -21
-36 -2 -67 2 -75 9 -8 7 -17 9 -21 5 -3 -3 -1 -6 5 -6 7 0 12 -4 12 -10 0 -17
-36 -11 -54 9 -17 19 -17 20 16 24 84 10 136 7 157 -10z m49 -55 c3 -16 -6
-18 -71 -18 -77 0 -107 6 -107 21 0 8 70 16 135 15 30 -1 41 -6 43 -18z m-284
-47 c11 -18 -6 -41 -30 -41 -27 0 -28 3 -14 31 11 20 35 25 44 10z"/>
<path d="M2582 1728 c-12 -16 -35 -308 -26 -331 10 -27 34 -20 70 19 26 26 33
41 28 59 -3 12 -1 26 5 29 18 12 12 53 -10 67 -19 13 -19 18 -9 64 9 40 8 51
-3 60 -7 5 -16 18 -20 28 -8 20 -21 22 -35 5z m43 -168 c13 -14 15 -26 10 -47
-9 -30 -11 -41 -13 -60 -1 -7 -10 -17 -21 -22 -18 -10 -19 -6 -19 56 0 96 9
111 43 73z"/>
<path d="M485 1253 c3 -12 1 -24 -5 -28 -5 -3 -10 -11 -10 -17 0 -7 6 -6 15 2
12 10 15 10 15 -3 0 -9 5 -19 12 -23 6 -4 8 -3 4 4 -3 5 0 13 6 15 10 4 10 6
1 6 -7 1 -13 5 -13 11 0 5 7 7 15 4 8 -4 15 -1 15 5 0 6 -7 11 -16 11 -9 0
-23 8 -31 18 -13 16 -14 15 -8 -5z"/>
<path d="M1998 1112 l-61 -62 33 -30 c30 -26 40 -30 77 -26 23 3 45 1 48 -4 3
-6 14 -10 23 -10 13 0 9 8 -14 28 -30 25 -37 56 -11 46 7 -2 13 8 14 26 2 28
1 29 -14 15 -15 -15 -18 -15 -36 4 -17 17 -18 22 -7 36 11 14 14 14 26 -2 7
-10 13 -13 13 -8 0 6 -6 19 -14 29 -14 19 -18 17 -77 -42z m49 -34 c26 -24 29
-38 10 -38 -17 0 -59 44 -50 53 10 11 15 9 40 -15z m-27 -55 c0 -19 -24 -16
-43 5 -13 14 -14 21 -5 30 9 9 16 8 30 -5 10 -9 18 -22 18 -30z"/>
<path d="M2392 1065 c-22 -46 -19 -58 14 -49 28 7 45 40 38 69 -9 37 -27 30
-52 -20z"/>
<path d="M2200 1016 c0 -24 -40 -65 -58 -60 -14 5 -14 4 -3 -4 12 -8 8 -14
-20 -31 -19 -12 -38 -21 -43 -21 -12 0 32 -34 71 -54 18 -9 48 -16 67 -16 24
0 46 -10 76 -35 23 -19 44 -35 46 -35 8 0 -18 43 -42 73 -15 18 -24 41 -24 64
0 19 -12 57 -27 84 -26 48 -43 62 -43 35z m49 -131 c1 -21 -31 -30 -75 -20
-19 4 -18 8 20 48 l41 43 6 -26 c4 -14 7 -34 8 -45z"/>
<path d="M1890 995 c-19 -14 -46 -25 -60 -25 -14 0 -36 -9 -50 -20 -23 -18
-24 -19 -3 -14 35 9 18 -32 -19 -45 -34 -12 -33 -18 8 -111 17 -36 21 -56 14
-58 -16 -6 -73 -62 -68 -68 3 -2 23 6 44 18 40 21 103 20 89 -2 -3 -6 -1 -10
4 -10 6 0 11 10 11 23 0 17 10 28 35 40 20 9 42 17 50 17 7 0 17 4 20 10 3 5
-4 10 -17 10 -13 0 -30 0 -38 0 -8 1 -23 0 -33 -2 -14 -2 -25 13 -48 66 -47
110 -30 161 33 99 31 -30 40 -34 52 -24 13 11 21 9 47 -13 17 -14 41 -26 53
-26 13 0 35 -10 50 -21 36 -28 43 -18 12 16 -15 16 -26 33 -26 39 0 11 -111
127 -120 126 -3 -1 -21 -12 -40 -25z m36 -44 c-22 -21 -46 0 -26 24 10 12 16
13 27 3 12 -10 12 -13 -1 -27z m-76 -228 c0 -2 -4 -3 -9 -3 -4 0 -17 24 -29
53 -35 90 -34 94 2 23 20 -38 36 -71 36 -73z"/>
<path d="M580 955 c0 -25 31 -65 50 -65 10 0 20 -7 24 -15 5 -15 46 -21 46 -7
0 13 -94 102 -108 102 -7 0 -12 -7 -12 -15z"/>
<path d="M820 948 c0 -16 78 -88 95 -88 23 0 18 9 -31 56 -46 44 -64 54 -64
32z"/>
<path d="M1135 928 c-36 -70 -44 -80 -76 -96 -36 -18 -52 -52 -25 -52 19 0 22
-60 5 -77 -14 -14 -5 -43 15 -43 7 0 17 10 21 23 4 13 8 17 11 10 3 -7 -10
-44 -28 -83 -20 -41 -29 -70 -22 -70 17 0 30 20 45 68 7 23 18 47 26 53 7 6
13 20 13 31 0 32 111 233 125 227 6 -2 9 -7 8 -11 -1 -3 -5 -57 -8 -120 -3
-62 -8 -128 -11 -146 -3 -19 -3 -46 1 -61 5 -24 9 -27 38 -23 39 6 47 16 47
65 0 35 2 37 33 37 l34 0 -5 -55 c-4 -53 -4 -55 21 -55 14 0 27 -6 29 -12 3
-8 9 -4 17 10 10 19 26 117 47 290 5 36 8 42 30 42 14 0 24 -6 24 -14 0 -8 10
-23 23 -33 20 -15 25 -32 33 -111 6 -61 6 -96 -1 -103 -6 -6 -5 -16 3 -29 6
-11 12 -37 13 -57 0 -21 4 -58 9 -83 7 -39 8 -34 8 40 -1 47 2 93 6 103 5 9 4
23 -2 30 -5 6 -13 52 -17 100 -6 72 -5 91 8 105 9 9 20 29 26 45 10 25 41 39
41 17 0 -5 7 -10 15 -10 8 0 15 5 15 10 0 6 -5 10 -11 10 -5 0 -8 4 -5 9 12
19 -35 19 -54 -1 -21 -23 -110 -39 -110 -19 0 14 -102 15 -117 0 -8 -8 -18 -6
-36 6 -16 10 -34 14 -47 10 -13 -4 -28 -1 -38 8 -9 8 -30 19 -47 24 -34 11
-54 -4 -93 -72 -13 -22 -35 -61 -50 -87 -15 -26 -31 -48 -35 -48 -14 0 3 41
53 130 32 57 44 87 36 92 -18 12 -23 10 -41 -24z m175 -38 c0 -13 -7 -20 -20
-20 -13 0 -20 7 -20 20 0 13 7 20 20 20 13 0 20 -7 20 -20z m98 -16 c6 -7 12
-17 12 -23 0 -5 9 -13 21 -16 26 -9 21 -39 -8 -43 -12 -2 -34 3 -50 11 -24 13
-31 13 -47 1 -13 -9 -24 -10 -37 -3 -26 14 -24 37 6 51 21 9 28 8 45 -7 11
-10 20 -13 20 -7 0 6 8 13 18 15 10 3 6 5 -10 6 -20 1 -28 6 -28 20 0 15 5 18
23 13 12 -3 28 -11 35 -18z m72 -8 c0 -8 -10 -13 -25 -13 -15 0 -25 5 -25 13
0 8 10 14 25 14 15 0 25 -6 25 -14z m-180 -95 c0 -14 -6 -19 -20 -18 -12 1
-20 8 -20 19 0 11 7 18 20 18 13 0 20 -7 20 -19z m88 -7 c4 -29 -23 -51 -43
-34 -16 13 -20 42 -8 54 14 14 48 1 51 -20z m52 -6 c0 -9 3 -8 10 2 5 8 12 12
15 9 8 -9 -6 -40 -15 -34 -5 3 -11 1 -15 -5 -3 -5 2 -10 11 -10 12 0 15 -3 8
-10 -6 -6 -25 -7 -42 -4 -26 5 -30 9 -21 20 6 8 15 11 20 8 5 -3 9 4 9 15 0
12 5 21 10 21 6 0 10 -6 10 -12z m-140 -122 c0 -45 -20 -58 -21 -14 -2 30 -2
31 -6 6 -6 -41 -20 -34 -15 7 3 26 9 35 23 35 15 0 19 -7 19 -34z m129 -18 c0
17 6 32 12 32 6 0 8 -7 5 -16 -3 -9 -6 -24 -6 -35 0 -12 -7 -19 -20 -19 -16 0
-20 7 -20 33 0 49 14 55 21 10 6 -37 6 -37 8 -5z"/>
<path d="M799 901 c12 -22 68 -71 82 -71 16 0 -7 35 -42 64 -36 31 -54 34 -40
7z"/>
<path d="M770 871 c0 -5 17 -24 37 -41 26 -23 38 -29 41 -20 3 8 -9 26 -27 42
-32 28 -51 36 -51 19z"/>
<path d="M750 841 c0 -15 45 -61 60 -61 14 0 13 4 -7 26 -31 33 -53 48 -53 35z"/>
<path d="M730 810 c0 -14 37 -50 52 -50 6 0 -1 14 -17 30 -31 33 -35 35 -35
20z"/>
<path d="M900 788 c0 -21 31 -46 51 -41 26 7 24 16 -10 36 -34 20 -41 21 -41
5z"/>
<path d="M710 775 c0 -14 40 -48 48 -41 2 3 -1 13 -7 24 -13 25 -41 37 -41 17z"/>
<path d="M693 738 c0 -18 5 -23 23 -23 28 0 27 12 -3 32 -19 13 -20 12 -20 -9z"/>
<path d="M2117 593 c-3 -5 -8 -29 -12 -54 -6 -40 -12 -48 -41 -62 -19 -9 -34
-21 -34 -26 0 -17 25 -18 52 -3 26 15 30 15 67 -6 21 -12 47 -22 57 -22 14 0
11 7 -15 34 -31 32 -32 34 -13 40 11 4 33 4 49 0 27 -7 28 -6 11 13 -10 11
-18 26 -18 34 0 8 -4 20 -9 28 -7 10 -12 7 -22 -15 -8 -16 -22 -30 -32 -32
-14 -3 -17 4 -17 37 0 37 -11 53 -23 34z"/>
</g>
</svg>
